<svg width="599" height="507" viewBox="0 0 599 507" fill="none" xmlns="http://www.w3.org/2000/svg">
<path d="M402.752 10.1555C402.752 10.1555 310.657 -22.5979 220.257 29.5378C129.858 81.6736 84.2727 185.136 45.0842 268.06C5.9342 350.945 28.4763 435.257 97.4512 473.713C166.465 512.169 213.36 455.487 310.156 452.712C406.952 449.938 433.001 463.81 513.304 409.092C593.647 354.413 608.135 225.249 544.786 129.725C481.476 34.2004 402.752 10.1555 402.752 10.1555Z" fill="#D8E8FD"/>
<path opacity="0.7" d="M402.752 10.1555C402.752 10.1555 310.657 -22.5979 220.257 29.5378C129.858 81.6736 84.2727 185.136 45.0842 268.06C5.9342 350.945 28.4763 435.257 97.4512 473.713C166.465 512.169 213.36 455.487 310.156 452.712C406.952 449.938 433.001 463.81 513.304 409.092C593.647 354.413 608.135 225.249 544.786 129.725C481.476 34.2004 402.752 10.1555 402.752 10.1555Z" fill="#D8E8FD"/>
<path d="M143.922 218.198C147.583 217.311 154.211 212.109 154.249 212.109C154.326 212.071 149.471 208.796 149.163 208.603C145.348 206.599 136.832 205.019 133.403 208.41C130.937 210.838 131.476 214.73 134.019 216.849C136.601 219.007 140.801 218.93 143.922 218.198Z" fill="white"/>
<path d="M160.954 236C164.114 234.266 168.854 227.985 169.2 227.484C172.668 230.143 176.483 232.571 180.452 234.844C182.726 236.154 185.038 237.387 187.388 238.582C186.232 238.197 185.192 237.85 185.038 237.811C180.838 236.886 172.206 237.619 169.778 241.78C168.044 244.786 169.586 248.408 172.63 249.757C175.713 251.144 179.759 249.988 182.572 248.446C185.423 246.905 189.546 241.626 190.625 240.2C191.55 240.663 192.436 241.125 193.322 241.587C197.677 243.745 202.031 245.903 206.231 248.138C207.734 248.909 209.16 249.757 210.585 250.566C209.545 250.219 208.697 249.949 208.543 249.911C204.343 248.986 195.711 249.718 193.284 253.88C191.55 256.885 193.091 260.507 196.135 261.856C199.218 263.243 203.264 262.087 206.077 260.546C208.813 259.043 212.666 254.226 213.938 252.569C215.364 253.456 216.828 254.342 218.176 255.267C219.101 255.922 220.026 256.5 220.912 257.194C221.799 257.887 222.685 258.542 223.533 259.197C225.151 260.546 226.846 261.933 228.426 263.282C229.505 264.207 230.546 265.131 231.586 266.056C230.122 265.247 227.193 263.744 226.962 263.667C222.955 262.126 214.285 261.509 211.279 265.286C209.121 267.983 210.084 271.798 212.897 273.609C215.749 275.458 219.91 274.919 222.916 273.801C226.23 272.607 231.663 267.366 232.318 266.673C234.014 268.176 235.671 269.678 237.173 271.104C241.297 274.957 244.726 278.425 247.462 281.2L250.005 279.273C247.154 276.46 243.493 272.915 239.1 268.985C237.366 267.443 235.517 265.825 233.59 264.168C233.898 263.667 235.671 260.7 236.981 257.733C240.564 258.388 247.462 257.078 248.348 256.924C248.926 259.12 249.466 261.278 249.967 263.32C251.238 268.638 252.202 273.3 252.895 277.077L255.67 274.996C254.899 271.489 253.936 267.289 252.702 262.627C252.124 260.392 251.469 258.003 250.737 255.575C251.585 255.19 258.405 251.953 260.679 249.256C262.76 246.828 264.725 243.129 263.993 239.815C263.261 236.578 260.024 234.305 256.748 235.422C252.163 236.925 249.735 245.248 249.774 249.564C249.774 249.834 250.121 252.569 250.352 254.303C250.044 253.302 249.774 252.338 249.466 251.298C248.849 249.256 248.194 247.29 247.462 245.133C247.077 244.092 246.691 243.052 246.306 242.011C245.959 240.971 245.42 239.892 244.996 238.813C243.917 236.347 242.722 233.919 241.451 231.492C243.223 230.952 249.466 228.948 251.932 226.829C254.359 224.71 256.864 221.357 256.633 217.966C256.402 214.653 253.55 211.917 250.159 212.533C245.42 213.342 241.72 221.203 241.104 225.442C241.065 225.712 240.95 228.794 240.95 230.528C240.179 229.064 239.408 227.638 238.599 226.174C236.21 222.012 233.667 217.851 231.124 213.728C230.353 212.456 229.582 211.185 228.812 209.913C229.428 209.72 236.942 207.524 239.678 205.135C242.106 203.015 244.61 199.663 244.379 196.272C244.148 192.958 241.297 190.222 237.906 190.839C233.166 191.648 229.467 199.509 228.85 203.748C228.812 204.056 228.658 208.526 228.696 209.682C227.001 206.869 225.382 204.056 223.879 201.243C221.799 197.312 219.949 193.382 218.446 189.413C218.754 189.336 226.577 187.063 229.351 184.635C231.779 182.516 234.283 179.163 234.052 175.772C233.821 172.458 230.97 169.723 227.579 170.339C222.839 171.148 219.14 179.009 218.523 183.248C218.485 183.595 218.331 188.373 218.369 189.259C218.292 189.028 218.176 188.797 218.061 188.565C216.52 184.327 215.556 180.011 214.863 175.926C214.439 173.576 214.208 171.264 213.976 169.029C215.479 168.759 222.338 167.411 225.074 165.522C227.733 163.711 230.584 160.629 230.7 157.238C230.854 153.924 228.311 150.918 224.843 151.111C220.026 151.381 215.518 158.779 214.439 162.941C214.362 163.172 214.053 165.522 213.822 167.256C213.745 166.255 213.63 165.214 213.591 164.251C213.398 160.629 213.398 157.276 213.475 154.309C213.514 152.614 213.591 151.111 213.668 149.685C215.017 148.645 220.334 144.406 221.876 141.478C223.378 138.626 224.496 134.619 223.07 131.536C221.683 128.53 218.022 127.027 215.055 128.8C210.932 131.266 210.316 139.936 211.279 144.098C211.356 144.445 213.321 149.955 213.398 149.916C213.398 149.916 213.475 149.878 213.475 149.839C213.36 151.188 213.283 152.652 213.206 154.271C213.09 157.238 212.974 160.59 213.129 164.251C213.244 167.911 213.475 171.88 214.13 176.003C214.747 180.165 215.633 184.519 217.098 188.874C217.098 188.912 217.136 188.989 217.136 189.028C216.327 187.872 213.899 184.789 213.668 184.558C210.662 181.475 203.071 177.314 198.756 179.433C195.634 180.974 194.941 184.866 196.713 187.679C198.524 190.569 202.532 191.802 205.73 192.072C209.352 192.38 216.712 189.76 217.329 189.529C218.754 193.652 220.566 197.813 222.646 201.898C223.841 204.249 225.074 206.561 226.384 208.834C225.652 207.871 224.958 207.023 224.843 206.907C221.837 203.825 214.246 199.663 209.93 201.782C206.809 203.324 206.115 207.216 207.888 210.029C209.699 212.919 213.707 214.152 216.905 214.421C220.142 214.691 226.5 212.572 228.157 211.994C228.658 212.88 229.159 213.766 229.659 214.614C232.087 218.814 234.553 223.014 236.827 227.176C237.636 228.64 238.368 230.143 239.1 231.607C238.445 230.76 237.867 230.027 237.79 229.95C234.784 226.868 227.193 222.706 222.878 224.825C219.756 226.367 219.063 230.22 220.835 233.072C222.646 235.962 226.654 237.195 229.852 237.464C232.935 237.734 238.83 235.807 240.834 235.152C241.566 236.694 242.26 238.235 242.876 239.738C243.262 240.778 243.724 241.78 244.071 242.859C244.418 243.899 244.803 244.978 245.15 246.019C245.766 248.023 246.421 250.142 246.961 252.107C247.346 253.494 247.693 254.804 248.078 256.153C247.308 254.689 245.689 251.837 245.535 251.606C243.878 249.294 240.256 246.173 236.711 244.786C236.48 244.439 236.21 244.131 235.902 243.822C233.513 241.51 229.582 241.433 227.424 244.131C224.457 247.907 227.001 256.23 229.39 259.775C229.544 259.968 231.316 262.087 232.472 263.397C231.663 262.742 230.931 262.087 230.083 261.394C228.465 260.045 226.808 258.735 224.997 257.348C224.111 256.693 223.224 256.037 222.3 255.382C221.413 254.689 220.411 254.111 219.448 253.456C217.213 251.991 214.863 250.643 212.473 249.294C213.668 247.868 217.753 242.743 218.639 239.622C219.487 236.54 219.756 232.339 217.676 229.642C215.672 226.983 211.78 226.29 209.237 228.679C205.73 231.954 207.002 240.547 208.813 244.439C208.928 244.67 210.547 247.329 211.472 248.755C210.007 247.984 208.582 247.175 207.117 246.443C202.84 244.285 198.409 242.243 194.016 240.162C192.667 239.545 191.319 238.89 190.008 238.235C190.432 237.734 195.442 231.761 196.444 228.255C197.291 225.172 197.561 220.972 195.48 218.275C193.477 215.616 189.585 214.922 187.041 217.311C183.535 220.587 184.806 229.18 186.618 233.072C186.772 233.38 189.122 237.156 189.739 238.081C186.81 236.655 183.882 235.229 181.03 233.688C177.138 231.569 173.401 229.295 169.971 226.829C170.164 226.598 175.443 220.356 176.445 216.81C177.292 213.728 177.562 209.528 175.481 206.83C173.478 204.171 169.586 203.478 167.043 205.867C163.536 209.142 164.808 217.735 166.619 221.627C166.773 221.935 169.277 226.02 169.817 226.714C169.624 226.559 169.393 226.444 169.2 226.29C165.578 223.592 162.38 220.548 159.567 217.504C157.91 215.77 156.446 213.997 155.02 212.225C156.138 211.185 161.108 206.291 162.341 203.17C163.536 200.203 164.23 196.079 162.496 193.151C160.8 190.299 157.024 189.182 154.249 191.263C150.396 194.153 150.704 202.823 152.092 206.869C152.169 207.1 153.171 209.258 153.941 210.799C153.325 209.99 152.67 209.181 152.092 208.41C149.895 205.482 148.084 202.707 146.504 200.202C145.618 198.777 144.847 197.467 144.115 196.234C144.655 194.615 146.735 188.142 146.427 184.866C146.119 181.668 144.847 177.699 141.919 175.926C139.067 174.192 135.214 174.925 133.711 178.046C131.63 182.362 135.907 189.953 138.99 192.881C139.26 193.151 143.922 196.657 143.961 196.58C143.961 196.58 144 196.503 144 196.465C144.655 197.659 145.387 198.931 146.196 200.318C147.737 202.861 149.51 205.713 151.629 208.68C153.749 211.647 156.138 214.845 158.951 217.928C161.763 221.049 164.885 224.209 168.507 227.022C168.545 227.06 168.584 227.099 168.622 227.099C167.312 226.598 163.575 225.326 163.266 225.288C159.066 224.363 150.435 225.095 148.007 229.257C146.273 232.262 147.814 235.885 150.859 237.233C154.095 238.697 158.141 237.541 160.954 236Z" fill="white"/>
<path d="M213.321 168.335C213.398 168.335 211.163 162.941 211.009 162.594C208.928 158.818 202.686 152.806 197.985 153.731C194.594 154.386 192.898 157.931 193.862 161.13C194.864 164.366 198.37 166.64 201.376 167.719C204.921 169.029 213.321 168.335 213.321 168.335Z" fill="white"/>
<path d="M461.053 46.1073H382.059L378.784 52.1956C375.278 58.6692 368.38 62.7537 360.866 62.7537C353.352 62.7537 346.454 58.7077 342.948 52.1956L339.673 46.1073H260.679C252.24 46.1073 245.42 52.7736 245.42 60.9812V467.779C245.42 475.987 252.24 482.653 260.679 482.653H461.053C469.492 482.653 476.312 475.987 476.312 467.779V60.9812C476.312 52.7736 469.453 46.1073 461.053 46.1073Z" fill="white"/>
<path d="M487.564 185.907C488.45 185.907 489.182 185.175 489.182 184.288V140.938C489.182 140.052 488.45 139.32 487.564 139.32H483.364V56.473C483.364 44.99 474.039 35.6649 462.556 35.6649H259.176C247.693 35.6649 238.368 44.99 238.368 56.473V483.963C238.368 495.446 247.693 504.771 259.176 504.771H462.517C474 504.771 483.325 495.446 483.325 483.963V223.207H487.526C488.412 223.207 489.144 222.475 489.144 221.589V202.284C489.144 201.397 488.412 200.665 487.526 200.665H483.325V185.907H487.564ZM476.312 467.741C476.312 475.948 469.492 482.615 461.053 482.615H260.679C252.24 482.615 245.42 475.948 245.42 467.741V60.9814C245.42 52.7738 252.24 46.1075 260.679 46.1075H339.673L342.948 52.1958C346.455 58.6694 353.352 62.7539 360.866 62.7539C368.38 62.7539 375.278 58.7079 378.784 52.1958L382.059 46.1075H461.053C469.492 46.1075 476.312 52.7738 476.312 60.9814V467.741Z" fill="#002C5F"/>
<path d="M366.299 48.4579C366.299 45.4523 363.872 43.0247 360.866 43.0247C357.861 43.0247 355.433 45.4523 355.433 48.4579C355.433 51.4635 357.861 53.8911 360.866 53.8911C363.833 53.8911 366.299 51.4249 366.299 48.4579Z" fill="white"/>
<path d="M360.828 54.5076C357.475 54.5076 354.778 51.8102 354.778 48.4578C354.778 45.1054 357.475 42.4081 360.828 42.4081C364.18 42.4081 366.877 45.1054 366.877 48.4578C366.916 51.7717 364.18 54.5076 360.828 54.5076ZM360.828 43.6026C358.169 43.6026 356.011 45.7605 356.011 48.4193C356.011 51.0781 358.169 53.236 360.828 53.236C363.486 53.236 365.644 51.0781 365.644 48.4193C365.644 45.799 363.486 43.6026 360.828 43.6026Z" fill="#1A2E35"/>
<path d="M185.462 67.031C178.333 67.031 172.553 61.251 172.553 54.1223C172.553 46.9936 178.333 41.2136 185.462 41.2136C192.59 41.2136 198.37 46.9936 198.37 54.1223C198.37 61.251 192.59 67.031 185.462 67.031ZM185.462 42.3696C178.988 42.3696 173.709 47.6487 173.709 54.1223C173.709 60.596 178.988 65.875 185.462 65.875C191.935 65.875 197.214 60.596 197.214 54.1223C197.214 47.6487 191.935 42.3696 185.462 42.3696Z" fill="#0E2549"/>
<path d="M185.462 59.9023C185.153 59.9023 184.884 59.6326 184.884 59.3243V49.3827C184.884 49.0744 185.153 48.8047 185.462 48.8047C185.77 48.8047 186.04 49.0744 186.04 49.3827V59.3243C186.04 59.6711 185.808 59.9023 185.462 59.9023Z" fill="#0E2549"/>
<path d="M190.432 54.9316H180.491C180.183 54.9316 179.913 54.6619 179.913 54.3536C179.913 54.0454 180.183 53.7756 180.491 53.7756H190.432C190.741 53.7756 191.01 54.0454 191.01 54.3536C191.01 54.7004 190.779 54.9316 190.432 54.9316Z" fill="#0E2549"/>
<path d="M522.706 113.849C518.352 113.849 514.807 110.304 514.807 105.95C514.807 101.596 518.352 98.0505 522.706 98.0505C527.061 98.0505 530.606 101.596 530.606 105.95C530.567 110.304 527.022 113.849 522.706 113.849ZM522.706 99.2451C519.007 99.2451 515.963 102.251 515.963 105.988C515.963 109.688 518.969 112.732 522.706 112.732C526.444 112.732 529.45 109.726 529.45 105.988C529.411 102.251 526.406 99.2451 522.706 99.2451Z" fill="#0E2549"/>
<path d="M168.931 149.03C164.576 149.03 161.031 145.485 161.031 141.131C161.031 136.777 164.576 133.231 168.931 133.231C173.285 133.231 176.83 136.777 176.83 141.131C176.792 145.485 173.285 149.03 168.931 149.03ZM168.931 134.426C165.232 134.426 162.187 137.432 162.187 141.169C162.187 144.869 165.193 147.913 168.931 147.913C172.63 147.913 175.674 144.907 175.674 141.169C175.636 137.432 172.63 134.426 168.931 134.426Z" fill="#0E2549"/>
<path d="M48.5908 310.524C37.4161 310.524 28.3222 301.43 28.3222 290.255C28.3222 279.081 37.4161 269.987 48.5908 269.987C59.7655 269.987 68.8594 279.081 68.8594 290.255C68.8594 301.43 59.7655 310.524 48.5908 310.524ZM48.5908 271.143C38.0326 271.143 29.4782 279.736 29.4782 290.255C29.4782 300.775 38.0711 309.368 48.5908 309.368C59.1104 309.368 67.7034 300.775 67.7034 290.255C67.7034 279.736 59.1104 271.143 48.5908 271.143Z" fill="#0E2549"/>
<path d="M48.9375 301.546L48.5907 301.276C48.1669 300.968 38.1482 293.492 37.416 286.903C37.2234 285.169 37.6858 283.628 38.8418 282.356C39.4968 281.585 40.3446 281.2 41.3464 281.2C41.385 281.2 41.4235 281.2 41.462 281.2C44.3906 281.2 47.8586 284.321 49.0146 285.439C50.3247 284.321 54.2937 281.162 57.1452 281.393C57.9929 281.47 58.6865 281.817 59.1874 282.472C60.1508 283.705 60.5361 285.208 60.3049 286.903C59.4572 293.454 49.7082 301.006 49.2843 301.315L48.9375 301.546ZM41.4235 282.356C41.385 282.356 41.385 282.356 41.3464 282.356C40.6528 282.356 40.1134 282.626 39.6895 283.127C38.7647 284.167 38.4179 285.362 38.572 286.787C39.15 292.221 47.165 298.694 48.9375 300.081C50.6715 298.694 58.4938 292.144 59.1874 286.71C59.3801 285.323 59.0718 284.167 58.3012 283.165C57.9929 282.78 57.6076 282.549 57.0681 282.51C54.7175 282.318 50.7486 285.4 49.3999 286.633L48.9761 287.019L48.5907 286.633C48.5137 286.556 44.3906 282.356 41.4235 282.356Z" fill="#0E2549"/>
<path d="M83.9645 273.301C81.4598 273.301 79.4561 271.297 79.4561 268.792C79.4561 266.288 81.4598 264.284 83.9645 264.284C86.4692 264.284 88.4729 266.288 88.4729 268.792C88.4729 271.297 86.4692 273.301 83.9645 273.301ZM83.9645 265.44C82.1149 265.44 80.6121 266.943 80.6121 268.792C80.6121 270.642 82.1149 272.145 83.9645 272.145C85.8141 272.145 87.3169 270.642 87.3169 268.792C87.3169 266.943 85.8141 265.44 83.9645 265.44Z" fill="#0E2549"/>
<path d="M299.405 79.0149H441.478V105.988H310.503V84.1399L299.405 79.0149Z" fill="#DAEAFF"/>
<path d="M420.362 185.252H286.265V245.711H409.611V192.419L420.362 185.252Z" fill="#4CA6FF"/>
<path d="M442.827 107.337H310.965V86.2978L298.172 78.4755H442.827V107.337ZM312.314 105.988H441.478V79.8627H302.989L312.352 85.5656V105.988H312.314Z" fill="#0E2549"/>
<path d="M294.28 85.2573C294.28 77.8203 288.23 71.7321 280.755 71.7321C273.318 71.7321 267.23 77.7818 267.23 85.2573C267.23 88.8024 268.578 92.1163 271.044 94.6595C273.626 97.3183 277.056 98.744 280.716 98.744C283.838 98.744 286.728 97.7036 289.155 95.7769C289.348 95.6228 289.502 95.4687 289.695 95.3531C289.695 95.3531 289.695 95.3531 289.733 95.3531C292.662 92.7713 294.28 89.1492 294.28 85.2573ZM268.617 85.2573C268.617 78.5525 274.089 73.0807 280.793 73.0807C287.498 73.0807 292.97 78.5525 292.97 85.2573C292.97 88.3785 291.775 91.3456 289.695 93.5805C288.808 90.9217 286.496 88.8409 283.722 88.0702C284.801 87.2225 285.494 85.8738 285.494 84.4096C285.494 81.8278 283.375 79.747 280.832 79.747C278.25 79.747 276.169 81.8663 276.169 84.4096C276.169 85.8738 276.863 87.184 277.903 88.0317C275.167 88.7638 272.894 90.7676 271.815 93.4264C269.734 91.1529 268.617 88.3014 268.617 85.2573ZM280.755 87.6849C278.905 87.6849 277.441 86.1821 277.441 84.3325C277.441 82.4829 278.944 80.9801 280.793 80.9801C282.643 80.9801 284.146 82.4829 284.146 84.3325C284.107 86.1821 282.643 87.6849 280.755 87.6849ZM280.793 97.3953C277.826 97.3953 275.052 96.3549 272.855 94.4283C273.819 91.23 276.786 89.0336 280.1 89.0336H280.793H281.217C284.724 89.0336 287.806 91.3841 288.539 94.5824C288.5 94.6209 288.423 94.698 288.384 94.7365C286.188 96.4705 283.568 97.3953 280.793 97.3953Z" fill="#0E2549"/>
<path d="M454.656 187.833C454.656 180.397 448.607 174.308 441.131 174.308C433.656 174.308 427.606 180.358 427.606 187.833C427.606 191.379 428.955 194.692 431.421 197.236C434.002 199.894 437.432 201.32 441.093 201.32C444.214 201.32 447.104 200.28 449.531 198.353C449.724 198.199 449.878 198.045 450.071 197.929C450.071 197.929 450.071 197.929 450.109 197.929C453.038 195.347 454.656 191.725 454.656 187.833ZM428.993 187.833C428.993 181.129 434.465 175.657 441.17 175.657C447.874 175.657 453.346 181.129 453.346 187.833C453.346 190.955 452.152 193.922 450.071 196.157C449.185 193.498 446.873 191.417 444.098 190.646C445.177 189.799 445.871 188.45 445.871 186.986C445.871 184.404 443.79 182.323 441.208 182.323C438.626 182.323 436.546 184.443 436.546 186.986C436.546 188.45 437.239 189.76 438.28 190.608C435.544 191.34 433.27 193.344 432.191 196.003C430.111 193.729 428.993 190.878 428.993 187.833ZM441.131 190.3C439.281 190.3 437.817 188.797 437.817 186.947C437.817 185.098 439.32 183.595 441.17 183.595C443.019 183.595 444.522 185.098 444.522 186.947C444.484 188.797 443.019 190.261 441.131 190.3ZM441.17 200.01C438.203 200.01 435.428 198.97 433.232 197.043C434.195 193.845 437.162 191.648 440.476 191.648H441.17H441.594C445.1 191.648 448.183 193.999 448.915 197.197C448.876 197.236 448.799 197.313 448.761 197.351C446.603 199.085 443.944 200.01 441.17 200.01Z" fill="#0E2549"/>
<path d="M429.301 92.6559H323.334C322.949 92.6559 322.679 92.3476 322.679 92.0008C322.679 91.6154 322.987 91.3457 323.334 91.3457H429.301C429.687 91.3457 429.956 91.654 429.956 92.0008C429.956 92.3476 429.648 92.6559 429.301 92.6559Z" fill="#0E2549"/>
<path d="M309.771 116.855H441.632V153.654H310.541V123.868L309.771 116.855Z" fill="#DAEAFF"/>
<path d="M441.632 153.654H309.771V124.677V116.855H441.632V153.654ZM311.119 152.306H440.283V118.203H311.119V123.906V152.306Z" fill="#0E2549"/>
<path d="M430.188 130.033H324.221C323.835 130.033 323.566 129.725 323.566 129.378C323.566 128.993 323.874 128.723 324.221 128.723H430.188C430.573 128.723 430.843 129.031 430.843 129.378C430.881 129.725 430.573 130.033 430.188 130.033Z" fill="#0E2549"/>
<path d="M381.905 141.131H324.221C323.835 141.131 323.566 140.823 323.566 140.476C323.566 140.129 323.874 139.821 324.221 139.821H381.905C382.291 139.821 382.56 140.129 382.56 140.476C382.56 140.823 382.291 141.131 381.905 141.131Z" fill="#0E2549"/>
<path d="M402.135 199.278H296.168C295.783 199.278 295.513 198.97 295.513 198.623C295.513 198.237 295.821 197.968 296.168 197.968H402.135C402.521 197.968 402.79 198.276 402.79 198.623C402.79 198.97 402.482 199.278 402.135 199.278Z" fill="#0E2549"/>
<path d="M402.135 210.414H296.168C295.783 210.414 295.513 210.106 295.513 209.759C295.513 209.373 295.821 209.104 296.168 209.104H402.135C402.521 209.104 402.79 209.412 402.79 209.759C402.79 210.106 402.482 210.414 402.135 210.414Z" fill="#0E2549"/>
<path d="M402.135 221.55H296.168C295.783 221.55 295.513 221.242 295.513 220.895C295.513 220.51 295.821 220.24 296.168 220.24H402.135C402.521 220.24 402.79 220.548 402.79 220.895C402.79 221.242 402.482 221.55 402.135 221.55Z" fill="#0E2549"/>
<path d="M326.687 232.648H296.168C295.783 232.648 295.513 232.34 295.513 231.993C295.513 231.607 295.822 231.338 296.168 231.338H326.687C327.072 231.338 327.342 231.646 327.342 231.993C327.342 232.378 327.072 232.648 326.687 232.648Z" fill="#0E2549"/>
<path d="M420.362 368.825H286.265V417.955H409.611V374.682L420.362 368.825Z" fill="#4CA6FF"/>
<path d="M454.656 371.445C454.656 364.008 448.607 357.92 441.131 357.92C433.656 357.92 427.606 363.97 427.606 371.445C427.606 374.99 428.955 378.304 431.421 380.847C434.002 383.506 437.432 384.932 441.093 384.932C444.214 384.932 447.104 383.892 449.531 381.965C449.724 381.811 449.878 381.657 450.071 381.541C450.071 381.541 450.071 381.541 450.109 381.541C453.038 378.959 454.656 375.337 454.656 371.445ZM428.993 371.445C428.993 364.74 434.465 359.269 441.17 359.269C447.874 359.269 453.346 364.74 453.346 371.445C453.346 374.566 452.152 377.534 450.071 379.768C449.185 377.11 446.873 375.029 444.098 374.258C445.177 373.411 445.871 372.062 445.871 370.598C445.871 368.016 443.79 365.935 441.208 365.935C438.626 365.935 436.546 368.054 436.546 370.598C436.546 372.062 437.239 373.372 438.28 374.22C435.544 374.952 433.27 376.956 432.191 379.614C430.111 377.341 428.993 374.451 428.993 371.445ZM441.131 373.873C439.281 373.873 437.817 372.37 437.817 370.52C437.817 368.671 439.32 367.168 441.17 367.168C443.019 367.168 444.522 368.671 444.522 370.52C444.484 372.37 443.019 373.873 441.131 373.873ZM441.17 383.583C438.203 383.583 435.428 382.543 433.232 380.616C434.195 377.418 437.162 375.222 440.476 375.222H441.17H441.594C445.1 375.222 448.183 377.572 448.915 380.77C448.876 380.809 448.799 380.886 448.761 380.925C446.603 382.659 443.944 383.583 441.17 383.583Z" fill="#0E2549"/>
<path d="M402.135 382.851H296.168C295.783 382.851 295.513 382.543 295.513 382.196C295.513 381.849 295.821 381.541 296.168 381.541H402.135C402.521 381.541 402.79 381.849 402.79 382.196C402.79 382.543 402.482 382.851 402.135 382.851Z" fill="#0E2549"/>
<path d="M402.135 393.987H296.168C295.783 393.987 295.513 393.679 295.513 393.332C295.513 392.947 295.821 392.677 296.168 392.677H402.135C402.521 392.677 402.79 392.986 402.79 393.332C402.79 393.679 402.482 393.987 402.135 393.987Z" fill="#0E2549"/>
<path d="M375.2 405.124H295.976C295.706 405.124 295.475 404.815 295.475 404.469C295.475 404.083 295.706 403.813 295.976 403.813H375.2C375.47 403.813 375.701 404.122 375.701 404.469C375.701 404.815 375.47 405.124 375.2 405.124Z" fill="#0E2549"/>
<path d="M409.688 426.047H286.265V450.863H409.611V429.014L409.688 426.047Z" fill="#4CA6FF"/>
<path d="M402.135 440.074H296.168C295.783 440.074 295.513 439.765 295.513 439.419C295.513 439.072 295.821 438.763 296.168 438.763H402.135C402.521 438.763 402.79 439.072 402.79 439.419C402.79 439.765 402.482 440.074 402.135 440.074Z" fill="#0E2549"/>
<path d="M302.526 276.846H436.623V337.343H313.316V284.051L302.526 276.846Z" fill="#DAEAFF"/>
<path d="M437.393 338.114H312.545V284.475L299.983 276.113H437.393V338.114ZM314.086 336.572H435.852V277.655H305.069L314.086 283.666V336.572Z" fill="#1A2E35"/>
<path d="M271.777 290.14C271.815 290.178 271.815 290.178 271.777 290.14C271.969 290.294 272.123 290.448 272.316 290.602C274.744 292.529 277.672 293.569 280.755 293.569C284.454 293.569 287.884 292.105 290.427 289.485C292.893 286.941 294.242 283.628 294.242 280.082C294.242 272.646 288.192 266.557 280.716 266.557C273.279 266.557 267.191 272.607 267.191 280.082C267.268 283.974 268.925 287.597 271.777 290.14ZM289.81 288.213C288.77 285.516 286.496 283.512 283.76 282.818C284.801 281.971 285.494 280.66 285.494 279.196C285.494 276.614 283.375 274.534 280.832 274.534C278.25 274.534 276.169 276.614 276.169 279.196C276.169 280.699 276.863 282.009 277.942 282.857C275.129 283.628 272.855 285.708 271.969 288.367C269.888 286.132 268.694 283.204 268.694 280.082C268.694 273.378 274.166 267.906 280.87 267.906C287.575 267.906 293.047 273.378 293.047 280.082C292.931 283.127 291.814 285.978 289.81 288.213ZM277.441 279.196C277.441 277.347 278.944 275.844 280.793 275.844C282.643 275.844 284.146 277.347 284.146 279.196C284.146 281.046 282.643 282.51 280.832 282.549H280.793C278.944 282.51 277.441 281.007 277.441 279.196ZM273.164 289.562C273.087 289.523 273.048 289.485 273.01 289.408C273.742 286.209 276.824 283.859 280.331 283.859H280.755H281.448C284.762 283.859 287.768 286.094 288.693 289.253C286.496 291.18 283.683 292.221 280.755 292.221C277.98 292.221 275.36 291.296 273.164 289.562Z" fill="#0E2549"/>
<path d="M322.063 290.718H428.03C428.415 290.718 428.685 290.41 428.685 290.063C428.685 289.677 428.376 289.408 428.03 289.408H322.063C321.677 289.408 321.408 289.716 321.408 290.063C321.369 290.448 321.677 290.718 322.063 290.718Z" fill="#0E2549"/>
<path d="M322.063 301.854H428.03C428.415 301.854 428.685 301.546 428.685 301.199C428.685 300.814 428.376 300.544 428.03 300.544H322.063C321.677 300.544 321.408 300.852 321.408 301.199C321.369 301.584 321.677 301.854 322.063 301.854Z" fill="#0E2549"/>
<path d="M322.063 312.99H428.03C428.415 312.99 428.685 312.682 428.685 312.335C428.685 311.988 428.377 311.68 428.03 311.68H322.063C321.677 311.68 321.408 311.988 321.408 312.335C321.408 312.682 321.677 312.99 322.063 312.99Z" fill="#0E2549"/>
<path d="M360.134 324.126H427.991C428.377 324.126 428.646 323.818 428.646 323.471C428.646 323.086 428.338 322.816 427.991 322.816H360.134C359.748 322.816 359.479 323.125 359.479 323.471C359.479 323.818 359.787 324.126 360.134 324.126Z" fill="#0E2549"/>
<path d="M501.976 101.904C499.471 101.904 497.467 99.9001 497.467 97.3954C497.467 94.8907 499.471 92.887 501.976 92.887C504.48 92.887 506.484 94.8907 506.484 97.3954C506.484 99.9001 504.48 101.904 501.976 101.904ZM501.976 94.043C500.126 94.043 498.623 95.5458 498.623 97.3954C498.623 99.245 500.126 100.748 501.976 100.748C503.825 100.748 505.328 99.245 505.328 97.3954C505.328 95.5458 503.825 94.043 501.976 94.043Z" fill="#0E2549"/>
<path d="M485.83 477.836L484.443 502.69C484.443 502.69 485.252 504.463 486.793 504.733C488.296 505.002 521.088 504.733 521.088 504.733C521.088 504.733 521.512 502.69 520.819 500.764C520.125 498.837 518.892 497.604 517.235 497.18C515.578 496.756 504.211 491.554 503.247 491.13C502.284 490.706 501.744 484.117 501.744 484.117L485.83 477.836Z" fill="white"/>
<path d="M496.658 505.465C491.379 505.465 487.217 505.426 486.678 505.349C484.867 505.002 483.942 503.037 483.903 502.96L483.826 502.806V502.652L485.252 476.95L502.322 483.732L502.361 484.117C502.592 486.853 503.131 490.09 503.555 490.629C503.787 490.745 504.403 491.015 505.212 491.361C508.488 492.826 516.156 496.294 517.427 496.602C519.277 497.064 520.664 498.452 521.435 500.571C522.167 502.613 521.743 504.771 521.743 504.887L521.628 505.388H521.127C518.93 505.349 506.06 505.465 496.658 505.465ZM485.059 502.536C485.252 502.883 485.907 503.962 486.87 504.116C487.949 504.309 507.37 504.232 520.51 504.116C520.587 503.422 520.626 502.151 520.202 500.956C519.585 499.222 518.506 498.143 517.081 497.797C515.886 497.488 510.414 495.061 504.673 492.479C503.787 492.094 503.209 491.824 503.016 491.747C502.168 491.4 501.552 488.972 501.166 484.618L486.408 478.761L485.059 502.536Z" fill="#1A2E35"/>
<path d="M521.088 504.733C521.088 504.733 521.319 503.499 521.127 502.074C514.268 501.881 491.957 501.303 484.558 501.11L484.481 502.69C484.481 502.69 485.29 504.463 486.832 504.733C488.296 505.002 521.088 504.733 521.088 504.733Z" fill="white"/>
<path d="M496.658 505.465C491.379 505.465 487.217 505.426 486.678 505.349C484.867 505.002 483.942 503.037 483.903 502.96L483.826 502.806L483.942 500.455H484.558C491.995 500.648 514.306 501.265 521.127 501.419H521.666L521.743 501.92C521.974 503.461 521.705 504.733 521.705 504.771L521.589 505.272H521.088C518.93 505.349 506.06 505.465 496.658 505.465ZM485.059 502.536C485.252 502.883 485.907 503.962 486.87 504.116C487.949 504.309 507.37 504.232 520.51 504.116C520.549 503.769 520.587 503.268 520.549 502.652C513.343 502.459 492.843 501.92 485.098 501.688L485.059 502.536Z" fill="#1A2E35"/>
<path d="M492.65 351.947C492.65 351.947 495.463 412.907 495.155 414.795C494.847 416.684 484.52 478.877 484.52 478.877C484.52 478.877 493.575 483.886 497.968 484.811C502.361 485.736 508.295 486.044 508.295 486.044C508.295 486.044 522.668 427.589 523.284 424.159C523.901 420.73 516.079 346.63 516.079 346.63L492.65 351.947Z" fill="#002C5F"/>
<path d="M508.719 486.66L508.256 486.622C508.179 486.622 502.207 486.314 497.852 485.35C493.46 484.387 484.635 479.57 484.25 479.339L483.903 479.146L483.98 478.761C484.096 478.144 494.307 416.529 494.616 414.68C494.847 413.023 492.882 368.864 492.111 351.947L492.072 351.485L516.58 345.936L516.657 346.553C516.965 349.597 524.479 420.768 523.824 424.236C523.207 427.666 509.413 483.77 508.796 486.159L508.719 486.66ZM485.136 478.568C486.832 479.493 494.307 483.462 498.084 484.271C501.667 485.042 506.368 485.389 507.871 485.466C509.22 479.994 522.167 427.28 522.745 424.043C523.207 421.423 518.314 373.064 515.616 347.285L493.228 352.371C493.614 360.463 496.003 413.023 495.695 414.872C495.425 416.645 486.023 473.289 485.136 478.568Z" fill="#1A2E35"/>
<path d="M493.075 471.247C493.075 471.247 480.32 488.818 481.823 490.591C483.326 492.363 494.462 502.921 497.198 504.193C499.933 505.426 525.057 504.193 525.057 504.193C525.057 504.193 525.481 503.114 525.481 501.997C525.481 500.879 525.327 496.64 523.824 495.407C522.321 494.174 510.916 488.818 510.53 488.009C510.106 487.2 509.567 480.456 509.567 480.456L493.075 471.247Z" fill="white"/>
<path d="M505.906 505.349C501.59 505.349 497.968 505.195 496.966 504.733C494.076 503.423 483.017 492.903 481.399 490.976C480.975 490.475 480.166 489.512 486.408 479.879C489.375 475.293 492.573 470.9 492.612 470.862L492.92 470.399L510.145 480.033L510.183 480.38C510.453 483.501 510.838 487.046 511.069 487.662C511.609 488.163 515.154 489.974 517.736 491.323C520.818 492.903 523.477 494.29 524.248 494.907C525.982 496.332 526.136 500.687 526.136 501.958C526.136 503.153 525.712 504.309 525.674 504.386L525.52 504.771L525.096 504.81C523.439 504.887 513.536 505.349 505.906 505.349ZM482.324 490.206C483.942 492.094 494.885 502.421 497.467 503.615C499.355 504.463 514.576 504.078 524.595 503.577C524.71 503.191 524.864 502.575 524.864 501.997C524.864 499.608 524.402 496.679 523.439 495.87C522.784 495.331 519.778 493.789 517.158 492.441C511.455 489.473 510.222 488.78 509.952 488.279C509.528 487.47 509.104 482.73 508.95 480.842L493.267 472.095C487.641 479.802 481.977 488.818 482.324 490.206Z" fill="#1A2E35"/>
<path d="M525.057 504.155C525.057 504.155 525.481 503.076 525.481 501.958C525.481 501.843 525.481 501.65 525.481 501.457L508.064 502.112C508.064 502.112 502.708 502.921 499.818 500.609C497.39 498.644 486.832 489.011 483.441 485.928C482.169 488.24 481.399 490.09 481.823 490.591C483.325 492.363 494.462 502.921 497.197 504.193C499.933 505.426 525.057 504.155 525.057 504.155Z" fill="white"/>
<path d="M505.906 505.349C501.59 505.349 497.968 505.195 496.966 504.732C494.076 503.422 483.017 492.903 481.399 490.976C480.898 490.359 480.936 489.204 482.94 485.62L483.325 484.926L483.903 485.466C487.14 488.433 497.853 498.182 500.242 500.108C502.862 502.228 507.948 501.496 507.987 501.496H508.064L526.098 500.802V501.419C526.098 501.65 526.098 501.804 526.098 501.958C526.098 503.153 525.674 504.309 525.635 504.386L525.481 504.771L525.057 504.81C523.439 504.887 513.536 505.349 505.906 505.349ZM482.324 490.205C483.942 492.093 494.885 502.42 497.429 503.576C499.317 504.424 514.537 504.039 524.556 503.538C524.672 503.191 524.787 502.613 524.787 502.074L508.025 502.69C507.486 502.767 502.322 503.461 499.355 501.033C497.12 499.222 487.949 490.899 483.518 486.853C482.285 489.396 482.324 490.09 482.324 490.205Z" fill="#1A2E35"/>
<path d="M483.595 323.471C483.595 323.471 485.483 341.62 487.024 344.433C488.604 347.246 491.07 351.639 491.07 351.639L514.846 418.225L490.454 472.018C490.454 472.018 508.256 483.578 512.033 484.849C515.77 486.082 517.042 486.082 517.042 486.082C517.042 486.082 545.788 418.88 545.788 414.179C545.788 409.478 525.789 342.275 525.789 342.275L527.022 319.155L483.595 323.471Z" fill="#002C5F"/>
<path d="M523.94 336.38L507.1 329.637L507.524 328.596L517.004 332.372L505.598 323.317L517.35 328.596L516.849 329.637L513.574 328.172L523.94 336.38Z" fill="white"/>
<path d="M493.498 468.781L492.419 468.319L514.229 418.186L499.24 374.99L500.319 374.605L515.462 418.225L515.385 418.456L493.498 468.781Z" fill="white"/>
<path d="M497.267 365.843L496.175 366.222L497.73 370.7L498.822 370.321L497.267 365.843Z" fill="white"/>
<path d="M544.131 289.87C544.131 289.87 551.529 282.934 552.994 282.048C554.458 281.161 560.546 279.389 560.97 277.308C561.432 275.227 560.816 265.016 560.238 265.478C559.66 265.941 551.799 277 551.799 277L541.588 284.976L544.131 289.87Z" fill="white"/>
<path d="M543.938 290.872L540.817 284.822L551.337 276.576C553.726 273.185 559.236 265.44 559.853 264.977C560.084 264.823 560.392 264.785 560.623 264.939C560.893 265.093 561.317 265.363 561.625 270.719C561.741 273.069 561.818 276.229 561.587 277.424C561.24 279.119 558.542 280.352 555.306 281.662C554.419 282.009 553.687 282.317 553.302 282.549C552.146 283.242 546.559 288.406 544.516 290.294L543.938 290.872ZM542.397 285.13L544.285 288.829C546.096 287.134 551.375 282.24 552.647 281.47C553.109 281.2 553.841 280.892 554.805 280.506C556.654 279.736 560.084 278.31 560.354 277.154C560.7 275.574 560.392 269.1 560.007 266.673C558.504 268.599 554.728 273.878 552.3 277.347L552.261 277.424L552.184 277.462L542.397 285.13Z" fill="#1A2E35"/>
<path d="M553.967 273.651L553.081 280.452L554.304 280.611L555.19 273.81L553.967 273.651Z" fill="#1A2E35"/>
<path d="M557.647 270.174L556.415 270.218L556.711 278.498L557.943 278.454L557.647 270.174Z" fill="#1A2E35"/>
<path d="M559.352 267.367C559.352 267.367 559.198 276.075 559.352 276.961V267.367Z" fill="white"/>
<path d="M558.735 277.077C558.581 276.152 558.697 268.253 558.735 267.366L559.968 267.405C559.93 270.757 559.853 276.306 559.968 276.923L558.735 277.077Z" fill="#1A2E35"/>
<path d="M561.432 274.919C561.432 274.919 563.937 271.798 563.359 269.755C562.781 267.675 561.008 267.097 561.008 267.097L561.432 274.919Z" fill="white"/>
<path d="M560.893 276.537L560.315 266.21L561.163 266.48C561.24 266.519 563.244 267.212 563.937 269.563C564.592 271.875 562.165 274.958 561.895 275.304L560.893 276.537ZM561.664 268.214L561.933 273.069C562.511 272.068 563.012 270.834 562.743 269.948C562.511 269.1 562.088 268.561 561.664 268.214Z" fill="#1A2E35"/>
<path d="M543.245 281.855C543.707 282.163 547.252 287.635 547.252 287.635L542.821 293.569C542.821 293.569 545.056 297.692 543.707 298.733C542.358 299.773 531.299 305.553 531.299 305.553L527.6 290.602C527.6 290.602 535.885 285.439 536.309 285.593C536.771 285.747 537.503 286.479 537.503 286.479L543.245 281.855Z" fill="#87174D"/>
<path d="M530.876 306.362L526.907 290.294L527.253 290.063C535.769 284.745 536.155 284.861 536.463 284.976C536.81 285.092 537.195 285.4 537.503 285.631L543.206 281.084L543.553 281.316C544.015 281.624 546.058 284.706 547.715 287.25L547.946 287.597L543.476 293.531C544.093 294.725 545.518 297.962 544.054 299.118C542.705 300.158 531.993 305.746 531.531 305.977L530.876 306.362ZM528.217 290.872L531.646 304.705C535.076 302.894 542.359 299.079 543.322 298.309C543.861 297.885 543.206 295.611 542.281 293.877L542.089 293.569L546.52 287.674C545.21 285.67 543.784 283.551 543.168 282.741L537.426 287.288L537.079 286.941C536.81 286.672 536.463 286.402 536.232 286.248C535.384 286.518 531.646 288.714 528.217 290.872Z" fill="#1A2E35"/>
<path d="M547.946 279.851L549.487 280.93L565.787 257.618L564.245 256.539L547.946 279.851Z" fill="#005ED4"/>
<path d="M549.641 281.701L547.175 280.005L564.091 255.768L566.557 257.463L549.641 281.701ZM548.717 279.736L549.333 280.159L564.978 257.771L564.361 257.348L548.717 279.736Z" fill="#1A2E35"/>
<path d="M501.59 236.964C500.665 237.426 487.757 253.07 483.017 259.197C478.239 265.324 478.701 275.304 478.932 280.738C479.164 286.171 476.659 326.515 476.659 326.515C476.659 326.515 496.388 324.935 508.179 323.779C519.971 322.623 536.733 321.506 536.733 321.506C536.733 321.506 531.954 300.659 529.72 291.373C527.446 282.086 523.824 268.715 521.319 262.357C518.815 255.999 515.192 250.103 515.192 250.103L501.59 236.964Z" fill="#87174D"/>
<path d="M476.043 327.132L476.081 326.477C476.12 326.091 478.586 286.094 478.355 280.737V280.622C478.123 275.189 477.699 265.054 482.555 258.812C486.254 254.072 500.164 237.002 501.359 236.424L501.744 236.231L515.732 249.795C515.771 249.872 519.431 255.806 521.897 262.126C524.286 268.214 527.831 281.123 530.298 291.219C532.533 300.428 537.272 321.159 537.311 321.39L537.465 322.045L536.771 322.084C536.617 322.084 519.855 323.24 508.218 324.357C496.542 325.475 476.89 327.055 476.698 327.093L476.043 327.132ZM501.59 237.734C499.394 239.931 488.296 253.34 483.479 259.506C478.894 265.401 479.279 275.266 479.511 280.545V280.66C479.742 285.747 477.622 320.388 477.276 325.86C480.821 325.59 497.698 324.203 508.102 323.201C518.429 322.2 532.764 321.198 536.001 320.966C535.153 317.344 531.145 299.734 529.142 291.488C526.675 281.431 523.169 268.599 520.78 262.55C518.468 256.654 515.115 251.105 514.73 250.45L501.59 237.734Z" fill="#1A2E35"/>
<path d="M525.635 237.618L518.391 245.787L507.293 231.723L513.882 224.016C513.882 224.016 517.736 219.931 520.009 220.394C522.244 220.856 525.635 237.618 525.635 237.618Z" fill="white"/>
<path d="M518.352 246.751L506.484 231.723L513.381 223.631C513.805 223.169 517.581 219.277 520.086 219.816C520.664 219.932 521.897 220.163 524.248 229.064C525.365 233.303 526.213 237.503 526.251 237.541L526.328 237.85L518.352 246.751ZM508.064 231.761L518.391 244.824L524.941 237.426C522.938 227.715 520.741 221.319 519.816 220.972C518.429 220.702 515.655 222.937 514.268 224.402L508.064 231.761Z" fill="#1A2E35"/>
<path d="M517.928 229.257L522.36 241.587L525.635 237.618L517.928 229.257Z" fill="#1A2E35"/>
<path d="M522.129 242.821L516.31 226.598L526.444 237.657L522.129 242.821ZM519.547 231.916L522.591 240.354L524.826 237.657L519.547 231.916Z" fill="#1A2E35"/>
<path d="M517.004 223.785C517.004 223.785 514.268 228.101 512.033 227.176C509.759 226.251 503.632 219.7 500.935 211.531C498.199 203.362 508.179 202.014 509.759 198.854C511.339 195.694 512.688 195.232 514.961 184.134C517.235 173.036 542.628 177.352 546.482 183.209C550.335 189.105 549.641 200.896 560.315 197.043C570.989 193.189 582.549 189.105 585.015 198.623C587.52 208.14 579.351 219.7 582.279 223.785C585.208 227.87 594.764 224.902 594.07 228.756C593.377 232.609 588.406 235.114 589.986 236C591.566 236.925 600.428 232.378 597.924 236.463C595.419 240.547 590.217 244.863 589.524 243.052C588.83 241.241 589.524 238.967 587.019 240.316C584.514 241.665 577.039 247.098 573.879 244.169C570.719 241.241 574.804 230.567 569.563 229.449C564.361 228.332 551.645 231.954 547.329 232.185C543.014 232.416 542.551 231.068 534.652 227.214C526.753 223.361 517.004 223.785 517.004 223.785Z" fill="#1A2E35"/>
<path d="M576.384 245.672C575.305 245.672 574.303 245.364 573.494 244.632C571.914 243.167 571.914 240.316 571.914 237.31C571.914 233.226 571.76 230.528 569.486 230.027C566.211 229.334 559.66 230.605 554.381 231.607C551.452 232.185 548.948 232.648 547.406 232.763C544.208 232.917 542.937 232.224 539.815 230.528C538.467 229.796 536.771 228.871 534.382 227.715C527.485 224.363 519.007 224.324 517.312 224.363C516.58 225.442 514.152 228.679 511.763 227.715C509.258 226.714 503.016 219.893 500.28 211.686C498.276 205.674 502.708 203.015 505.944 201.05C507.37 200.203 508.719 199.355 509.143 198.507C509.489 197.852 509.798 197.274 510.106 196.773C511.301 194.769 512.495 192.689 514.306 183.941C515.038 180.358 518.044 177.93 523.015 177.005C531.376 175.426 544.131 178.508 546.944 182.824C548.062 184.558 548.832 186.754 549.564 188.874C550.72 192.265 551.799 195.463 554.265 196.657C555.73 197.351 557.656 197.274 560.045 196.426C567.791 193.613 576.538 190.454 581.701 193.151C583.628 194.153 584.938 195.925 585.593 198.43C586.942 203.671 585.285 209.258 583.821 214.229C582.626 218.236 581.586 221.704 582.78 223.4C584.09 225.211 586.98 225.48 589.524 225.712C591.681 225.904 593.531 226.097 594.34 227.176C594.687 227.638 594.803 228.216 594.687 228.871C594.302 231.068 592.683 232.802 591.489 234.073C591.026 234.536 590.448 235.191 590.333 235.499C590.795 235.692 592.683 235.152 593.839 234.844C596.46 234.151 598.116 233.727 598.772 234.613C599.272 235.268 598.849 236.154 598.463 236.771C596.344 240.2 592.067 244.246 590.063 244.054C589.562 244.015 589.177 243.707 588.984 243.244C588.791 242.666 588.676 242.127 588.599 241.587C588.522 241.202 588.445 240.586 588.329 240.509C588.329 240.509 588.098 240.431 587.366 240.855C586.98 241.048 586.518 241.356 585.94 241.703C583.32 243.321 579.428 245.672 576.384 245.672ZM567.136 228.64C568.099 228.64 568.985 228.717 569.717 228.871C573.147 229.604 573.147 233.727 573.108 237.349C573.108 239.969 573.108 242.666 574.303 243.745C576.653 245.942 582.241 242.512 585.246 240.701C585.824 240.354 586.325 240.046 586.749 239.815C587.366 239.468 588.175 239.121 588.83 239.468C589.523 239.815 589.639 240.624 589.793 241.472C589.87 241.934 589.947 242.435 590.102 242.859C590.872 243.206 595.072 239.969 597.384 236.193C597.654 235.769 597.731 235.538 597.731 235.422C597.23 235.268 595.304 235.769 594.148 236.077C591.874 236.694 590.487 237.041 589.678 236.578C589.254 236.347 589.1 236 589.061 235.769C588.945 234.998 589.639 234.305 590.564 233.264C591.72 232.031 593.107 230.528 593.454 228.679C593.531 228.255 593.415 228.062 593.338 227.947C592.876 227.33 591.103 227.137 589.408 226.983C586.749 226.714 583.397 226.405 581.778 224.17C580.198 222.012 581.316 218.275 582.626 213.92C584.052 209.104 585.67 203.671 584.399 198.777C583.821 196.619 582.78 195.116 581.123 194.268C576.461 191.841 567.983 194.885 560.469 197.621C557.733 198.623 555.498 198.661 553.726 197.813C550.797 196.426 549.564 192.804 548.408 189.298C547.715 187.255 546.983 185.136 545.942 183.518C543.592 179.934 531.762 176.62 523.284 178.238C520.202 178.816 516.348 180.358 515.539 184.211C513.728 193.151 512.457 195.309 511.223 197.428C510.915 197.968 510.607 198.469 510.299 199.124C509.721 200.318 508.295 201.166 506.638 202.168C503.44 204.094 499.818 206.291 501.513 211.339C502.669 214.845 504.673 218.544 507.139 221.704C509.335 224.556 511.339 226.251 512.264 226.598C513.728 227.176 515.848 224.44 516.503 223.438L516.657 223.168H516.965C517.35 223.168 526.945 222.745 534.96 226.637C537.349 227.793 539.083 228.717 540.432 229.488C543.476 231.145 544.516 231.723 547.368 231.569C548.832 231.492 551.298 230.991 554.15 230.451C558.388 229.604 563.475 228.64 567.136 228.64Z" fill="#1A2E35"/>
<path d="M518.814 217.466C518.814 217.466 532.185 218.159 540.817 215.886C549.448 213.612 552.377 212.264 552.377 212.264C552.377 212.264 552.608 221.088 550.335 223.592C548.061 226.097 545.133 228.371 545.133 230.182C545.133 231.993 547.406 234.96 546.058 236.54C544.709 238.12 541.511 238.119 540.624 238.119C539.699 238.119 532.455 244.94 530.413 244.94C528.371 244.94 518.159 231.338 517.928 229.295C517.697 227.253 517.928 222.051 517.928 222.051" fill="white"/>
<path d="M530.374 245.479C528.949 245.479 525.558 241.51 522.976 238.197C520.934 235.576 517.466 230.76 517.312 229.295C517.08 227.215 517.312 222.167 517.312 221.935L518.545 221.974C518.545 222.013 518.313 227.176 518.545 229.141C518.622 229.835 520.703 233.149 523.862 237.31C527.677 242.243 529.874 244.169 530.374 244.246C531.376 244.246 534.767 241.588 536.771 239.969C539.314 237.965 540.046 237.426 540.547 237.426C543.668 237.426 544.979 236.694 545.518 236.039C546.135 235.307 545.634 233.958 545.133 232.686C544.786 231.762 544.439 230.875 544.439 230.105C544.439 228.525 546.058 226.906 547.946 225.057C548.562 224.44 549.217 223.785 549.834 223.13C551.375 221.435 551.722 215.963 551.722 213.111C550.296 213.651 547.059 214.807 540.933 216.425C532.34 218.699 519.315 218.044 518.737 218.044L518.814 216.811C518.93 216.811 532.186 217.466 540.624 215.231C549.063 212.996 552.069 211.647 552.069 211.647L552.917 211.262L552.955 212.187C552.955 212.572 553.148 221.319 550.759 223.939C550.142 224.633 549.487 225.288 548.832 225.904C547.291 227.446 545.711 229.026 545.711 230.105C545.711 230.683 546.019 231.453 546.289 232.262C546.867 233.842 547.56 235.576 546.443 236.886C545.441 238.081 543.437 238.698 540.586 238.698C540.162 238.852 538.698 240.008 537.503 240.971C534.228 243.63 531.723 245.479 530.374 245.479Z" fill="#1A2E35"/>
<path d="M540.393 228.987L540.085 228.948C539.969 228.948 537.195 228.64 536.154 225.596L537.31 225.211C537.888 226.983 539.276 227.523 539.892 227.677L542.166 225.018L543.09 225.827L540.393 228.987Z" fill="#1A2E35"/>
<path d="M536.887 236.886C534.112 236.462 533.534 233.611 533.65 232.147L534.883 232.224L534.266 232.185L534.883 232.224C534.883 232.339 534.729 235.306 537.079 235.653L536.887 236.886Z" fill="#1A2E35"/>
<path d="M545.248 223.862C543.707 220.972 540.239 222.051 540.085 222.128L539.699 220.972C541.279 220.432 544.709 220.24 546.327 223.322L545.248 223.862Z" fill="#1A2E35"/>
<path d="M522.244 220.856C522.244 220.856 518.853 210.876 515.655 214.498C512.495 218.12 514.306 224.478 516.772 225.827C519.277 227.176 521.55 225.827 521.55 225.827" fill="white"/>
<path d="M519.123 227.06C518.314 227.06 517.427 226.906 516.503 226.367C515.115 225.596 513.921 223.592 513.535 221.242C513.034 218.467 513.651 215.886 515.231 214.113C516.117 213.111 517.003 213.034 517.581 213.15C520.394 213.689 522.591 219.97 522.861 220.664L521.705 221.049C520.895 218.621 518.969 214.652 517.35 214.344C517.081 214.306 516.695 214.306 516.156 214.922C514.846 216.425 514.345 218.66 514.769 221.049C515.115 223.014 516.079 224.748 517.119 225.326C519.238 226.482 521.204 225.403 521.281 225.326L521.897 226.405C521.782 226.405 520.664 227.06 519.123 227.06Z" fill="#1A2E35"/>
<path d="M508.18 228.101C508.18 228.101 523.131 242.821 522.707 244.863C522.244 246.905 519.778 248.254 519.778 248.254C519.778 248.254 520.472 252.338 519.316 253.225C518.198 254.149 516.811 254.342 516.811 254.342C516.811 254.342 502.515 239.622 500.704 237.349C498.893 235.075 500.242 233.958 501.398 233.495C502.515 233.033 503.902 232.802 503.902 232.802C503.902 232.802 505.444 227.407 508.18 228.101Z" fill="#87174D"/>
<path d="M516.58 255.036L516.387 254.805C515.809 254.188 502.053 240.008 500.241 237.773C499.394 236.694 499.085 235.73 499.317 234.844C499.509 234.074 500.164 233.418 501.166 232.995C502.014 232.648 502.939 232.455 503.44 232.339C503.864 231.068 505.521 226.829 508.333 227.523L508.488 227.561L508.603 227.677C508.642 227.715 512.379 231.415 516.04 235.307C523.631 243.399 523.362 244.478 523.284 244.978C522.899 246.79 521.165 248.061 520.394 248.562C520.549 249.757 520.857 252.762 519.662 253.726C518.429 254.727 516.965 254.959 516.888 254.959L516.58 255.036ZM507.717 228.64C505.79 228.64 504.442 232.995 504.442 233.033L504.326 233.38L503.979 233.457C503.979 233.457 502.669 233.688 501.59 234.112C501.205 234.266 500.588 234.613 500.434 235.152C500.28 235.769 500.742 236.54 501.166 237.041C502.823 239.121 515.154 251.876 517.003 253.764C517.427 253.648 518.237 253.379 518.93 252.801C519.47 252.377 519.47 250.18 519.161 248.369L519.084 247.946L519.431 247.753C519.47 247.753 521.705 246.481 522.09 244.747C522.09 243.437 514.884 235.538 507.871 228.64C507.833 228.64 507.755 228.64 507.717 228.64Z" fill="#1A2E35"/>
<path d="M486.485 261.047C486.485 261.047 485.059 269.023 485.059 277C485.059 284.976 488.334 324.126 489.991 326.245C491.648 328.365 498.199 330.214 501.012 328.365C503.825 326.477 528.217 310.793 528.448 308.212C528.679 305.63 524.71 296.266 523.053 295.534C521.396 294.802 520.009 295.072 517.658 297.191C515.308 299.31 509.22 302.817 509.22 302.817C509.22 302.817 507.563 272.799 505.713 265.517C503.825 258.234 502.9 256.847 501.744 256.384" fill="#87174D"/>
<path d="M497.814 329.675C494.577 329.675 490.801 328.211 489.529 326.554C487.68 324.165 484.481 284.475 484.481 276.961C484.481 269.023 485.868 261.008 485.907 260.931L487.063 261.124C487.063 261.201 485.676 269.139 485.676 276.961C485.676 285.246 489.028 323.856 490.492 325.86C491.225 326.785 493.113 327.71 495.232 328.211C497.544 328.75 499.625 328.596 500.742 327.864C501.012 327.671 501.552 327.324 502.245 326.901C524.209 312.528 527.754 308.982 527.947 308.135C528.178 305.592 524.171 296.613 522.899 296.074C521.55 295.496 520.394 295.573 518.121 297.615C515.77 299.734 509.836 303.164 509.567 303.318L508.757 303.78L508.719 302.856C508.719 302.547 507.062 272.8 505.212 265.671C503.44 258.85 502.553 257.309 501.59 256.924L502.014 255.845C503.44 256.423 504.442 257.926 506.33 265.363C508.025 271.952 509.528 296.575 509.798 301.815C511.532 300.775 515.578 298.347 517.312 296.729C519.662 294.61 521.319 294.109 523.323 294.995C524.633 295.534 526.329 299.311 527.022 300.929C528.101 303.472 529.18 306.709 529.064 308.25C528.949 309.522 525.751 312.874 502.862 327.864C502.168 328.326 501.667 328.635 501.397 328.827C500.434 329.444 499.162 329.675 497.814 329.675Z" fill="#1A2E35"/>
<path d="M529.719 291.373C529.719 291.373 536.424 275.343 536.887 274.187C537.349 273.031 539.006 271.143 540.393 270.911C541.819 270.68 552.57 268.33 553.533 268.099C554.458 267.867 555.19 269.023 552.608 270.68C550.026 272.337 543.707 273.031 543.707 273.031L542.782 280.082C542.782 280.082 549.102 275.15 549.102 277.732C549.102 280.314 544.401 281.971 543.707 282.202C543.013 282.433 541.125 285.477 540.432 285.939C539.738 286.402 537.156 287.095 537.156 287.095C537.156 287.095 536.694 289.908 535.731 290.833C534.806 291.758 530.567 294.802 530.567 294.802L529.719 291.373Z" fill="white"/>
<path d="M530.182 295.843L529.064 291.296L529.141 291.103C529.219 290.949 535.846 275.073 536.309 273.917C536.848 272.568 538.621 270.526 540.316 270.256C541.626 270.025 552.416 267.713 553.418 267.444C554.073 267.289 554.689 267.559 554.959 268.099C555.152 268.522 555.306 269.64 552.994 271.143C550.72 272.607 545.865 273.301 544.285 273.532L543.591 278.657C545.325 277.424 547.869 275.882 549.063 276.46C549.333 276.576 549.757 276.923 549.757 277.693C549.757 280.583 545.287 282.279 543.938 282.741C543.669 282.895 542.859 283.936 542.397 284.591C541.665 285.554 541.202 286.171 540.817 286.441C540.201 286.864 538.505 287.365 537.734 287.597C537.542 288.444 537.079 290.448 536.232 291.296C535.268 292.259 531.184 295.226 530.991 295.342L530.182 295.843ZM530.375 291.411L530.953 293.762C532.494 292.644 534.69 290.987 535.307 290.371C535.885 289.793 536.386 287.982 536.54 286.941L536.617 286.556L537.002 286.441C537.966 286.171 539.661 285.67 540.123 285.362C540.355 285.207 540.971 284.398 541.434 283.782C542.513 282.356 543.052 281.701 543.553 281.508C545.403 280.892 548.524 279.389 548.524 277.655C548.524 277.578 548.524 277.539 548.524 277.539C547.946 277.385 545.441 278.772 543.206 280.506L542.012 281.431L543.206 272.414L543.669 272.376C543.746 272.376 549.872 271.682 552.3 270.141C553.456 269.409 553.764 268.869 553.803 268.677C553.764 268.677 553.764 268.677 553.726 268.677C552.685 268.946 541.935 271.258 540.547 271.49C539.391 271.682 537.889 273.378 537.503 274.38C537.041 275.497 531.145 289.523 530.375 291.411Z" fill="#1A2E35"/>
<path d="M536.886 274.187C536.886 274.187 539.584 270.834 540.008 270.873C540.393 270.911 545.171 274.957 545.518 275.266C545.865 275.613 543.745 279.003 543.437 279.543C543.09 280.082 543.013 280.545 542.127 280.198C541.241 279.851 540.47 279.196 540.47 279.196" fill="white"/>
<path d="M542.628 280.93C542.435 280.93 542.166 280.892 541.896 280.776C540.933 280.429 540.085 279.697 540.046 279.659L540.856 278.734C540.856 278.734 541.549 279.312 542.32 279.62C542.551 279.697 542.628 279.697 542.628 279.697C542.628 279.697 542.705 279.543 542.782 279.428C542.821 279.35 542.859 279.312 542.898 279.235L542.975 279.119C544.401 276.769 544.786 275.882 544.902 275.536C544.092 274.803 540.971 272.222 540.046 271.567C539.545 272.029 538.351 273.378 537.388 274.572L536.424 273.802C539.353 270.179 539.738 270.218 540.085 270.257C540.856 270.334 545.904 274.804 545.981 274.842C546.366 275.227 546.52 275.69 544.054 279.774L543.977 279.89C543.938 279.967 543.9 280.006 543.861 280.044C543.63 280.391 543.322 280.93 542.628 280.93Z" fill="#1A2E35"/>
<path d="M536.154 276.884C536.154 276.884 539.121 273.57 539.545 273.57C539.969 273.57 543.707 276.537 543.707 277.077C543.707 277.616 543.052 280.93 542.512 281.046C541.973 281.161 540.2 280.815 540.2 280.815" fill="white"/>
<path d="M542.243 281.701C541.549 281.701 540.47 281.508 540.123 281.431L540.354 280.198C541.048 280.314 541.896 280.429 542.281 280.429C542.589 279.89 543.052 277.809 543.129 277.154C542.744 276.576 540.393 274.649 539.622 274.225C539.083 274.611 537.734 276.037 536.655 277.27L535.73 276.46C538.89 272.954 539.314 272.954 539.584 272.954C540.239 272.954 544.362 276.075 544.362 277.077C544.362 277.115 543.9 281.393 542.666 281.624C542.551 281.701 542.397 281.701 542.243 281.701Z" fill="#1A2E35"/>
<path d="M536.039 280.082C536.039 280.082 537.812 278.233 538.659 277.77C539.546 277.346 541.511 279.196 542.705 280.044C543.9 280.853 545.364 281.315 544.671 282.086C544.015 282.857 541.472 281.739 540.933 281.739C540.393 281.739 539.16 281.2 539.16 281.2L537.734 285.477" fill="white"/>
<path d="M538.389 285.67L537.233 285.284L538.89 280.352L539.507 280.622C540.046 280.853 540.74 281.123 541.01 281.123C541.241 281.123 541.511 281.2 542.05 281.354C543.283 281.701 544.015 281.816 544.247 281.701C544.092 281.547 543.669 281.315 543.36 281.123C543.052 280.969 542.744 280.776 542.397 280.545C542.089 280.352 541.742 280.082 541.395 279.813C540.779 279.35 539.353 278.233 538.967 278.348C538.389 278.618 537.156 279.851 536.501 280.545L535.615 279.697C535.808 279.504 537.465 277.732 538.428 277.269C539.43 276.768 540.817 277.847 542.166 278.849C542.513 279.119 542.821 279.35 543.129 279.543C543.399 279.736 543.707 279.89 544.015 280.082C544.786 280.506 545.441 280.892 545.557 281.547C545.595 281.778 545.557 282.125 545.248 282.51C544.516 283.358 542.975 282.934 541.742 282.587C541.472 282.51 541.125 282.433 541.048 282.394C540.663 282.394 540.123 282.202 539.661 282.048L538.389 285.67Z" fill="#1A2E35"/>
<path d="M521.897 296.228L530.105 289.677L533.843 296.729L526.791 304.012C526.829 303.935 521.897 303.01 521.897 296.228Z" fill="#87174D"/>
<path d="M527.022 304.59L526.714 304.513C526.675 304.513 521.319 303.395 521.319 296.189V295.92L530.297 288.752L534.575 296.767L527.022 304.59ZM522.475 296.498C522.591 301.623 525.673 303.01 526.637 303.318L533.149 296.613L529.912 290.563L522.475 296.498Z" fill="#1A2E35"/>
<path d="M37.8785 489.358C37.8785 489.358 32.2912 487.701 28.592 484.502C24.8928 481.304 13.1786 472.634 9.78764 470.361C6.39669 468.087 6.82056 478.414 7.97657 483.77C9.13257 489.126 11.5216 493.827 13.6795 496.409C15.8374 498.952 29.7865 504.231 31.3279 504.578C32.8692 504.925 39.1501 505.041 40.3832 504.424C41.6548 503.808 39.0345 493.75 37.8785 489.358Z" fill="#87174D"/>
<path d="M35.9903 505.464C33.9866 505.464 31.9443 505.349 31.2122 505.156C29.825 504.848 15.5291 499.569 13.2171 496.794C10.7124 493.827 8.43891 488.779 7.39851 483.924C6.51224 479.878 5.81863 471.285 8.05357 469.705C8.47744 469.436 9.17104 469.204 10.1344 469.86C13.6795 472.21 25.3551 480.88 28.9772 484.04C32.5223 487.122 37.9941 488.779 38.0326 488.779L38.3794 488.895L38.4565 489.242C42.1172 503.037 41.5777 504.578 40.6529 505.002C39.9207 505.31 37.9555 505.464 35.9903 505.464ZM8.90131 470.669C8.78571 470.669 8.74718 470.707 8.70864 470.746C7.59117 471.516 7.28291 477.759 8.55451 483.654C9.78758 489.357 12.3308 493.866 14.1033 496.024C14.9125 496.987 18.1493 498.721 22.9275 500.763C27.012 502.497 30.7498 503.846 31.4434 504C32.9462 504.347 38.7647 504.424 40.0363 503.962C40.2675 503.384 40.1905 500.725 37.339 489.897C36.0674 489.473 31.4434 487.855 28.168 485.003C24.5459 481.843 12.9473 473.25 9.44078 470.938C9.20957 470.707 9.01691 470.669 8.90131 470.669Z" fill="#1A2E35"/>
<path d="M14.373 492.016C11.0977 487.816 8.86276 474.985 8.70863 470.052C6.51222 470.553 6.97462 479.069 7.97649 483.77C9.1325 489.126 11.5216 493.827 13.6794 496.409C15.8373 498.952 29.7864 504.231 31.3278 504.578C32.3296 504.809 35.3738 504.925 37.6858 504.809C30.1332 502.112 17.6484 496.216 14.373 492.016Z" fill="#87174D"/>
<path d="M35.9132 505.464C33.9865 505.464 32.0213 505.349 31.1736 505.156C29.7864 504.848 15.4905 499.569 13.1785 496.794C10.6738 493.827 8.40031 488.779 7.35991 483.924C6.62777 480.456 5.47177 470.206 8.55445 469.474L9.28658 469.32L9.32512 470.091C9.47925 475.293 11.7913 487.739 14.8739 491.669C17.9951 495.638 30.2488 501.534 37.9169 504.231L40.884 505.272L37.7243 505.426C37.1463 505.426 36.5297 505.464 35.9132 505.464ZM8.16912 471.632C7.51405 473.79 7.59111 479.185 8.55445 483.654C9.78752 489.357 12.3307 493.866 14.1033 496.024C16.0685 498.336 29.5937 503.576 31.4433 504C31.9443 504.116 33.0232 504.193 34.3333 504.231C26.8578 501.226 16.8391 496.216 13.8721 492.44C10.7123 488.356 8.67005 477.142 8.16912 471.632Z" fill="#1A2E35"/>
<path d="M190.24 413.023C190.24 413.023 186.387 420.152 184.421 424.313C182.495 428.475 180.799 431.442 180.799 431.442C180.799 431.442 178.95 427.82 177.524 428.475C176.098 429.13 174.441 429.477 174.441 429.477C174.441 429.477 172.669 423.157 169.971 419.844C167.235 416.53 165 418.11 162.496 415.913C158.951 412.792 157.525 411.867 155.174 409.979C152.284 407.628 147.815 417.493 147.737 421.231C147.66 424.968 166.734 448.358 171.513 454.716C176.252 461.074 181.069 465.12 184.19 461.228C187.273 457.337 188.776 453.637 191.088 441.114C193.4 428.668 199.141 409.709 190.24 413.023Z" fill="#005ED4"/>
<path d="M181.3 463.348C181.262 463.348 181.262 463.348 181.223 463.348C178.487 463.309 175.173 460.612 171.05 455.063C170.048 453.714 168.353 451.556 166.388 449.052C156.215 436.027 147.121 424.121 147.159 421.231C147.236 417.955 150.281 410.672 153.171 409.324C154.018 408.938 154.789 409.015 155.483 409.555C156.176 410.133 156.793 410.595 157.448 411.096C158.874 412.214 160.338 413.331 162.843 415.528C163.844 416.414 164.769 416.607 165.81 416.838C167.197 417.146 168.738 417.493 170.395 419.497C172.746 422.348 174.364 427.203 174.826 428.783C175.404 428.629 176.406 428.359 177.293 427.935C178.641 427.28 180.028 429.053 180.799 430.247C181.416 429.053 182.649 426.779 183.92 424.005C185.847 419.882 189.7 412.753 189.739 412.676L189.855 412.483L190.047 412.406C191.743 411.751 193.13 411.867 194.055 412.676C197.099 415.296 195.018 425.045 193.014 434.448C192.513 436.837 192.012 439.072 191.627 441.191C189.238 453.984 187.697 457.645 184.614 461.537C183.689 462.77 182.572 463.348 181.3 463.348ZM154.211 410.21C154.057 410.21 153.864 410.249 153.672 410.364C151.283 411.482 148.354 418.418 148.277 421.269C148.238 424.005 160.608 439.842 167.274 448.397C169.239 450.901 170.935 453.059 171.936 454.446C175.79 459.61 178.911 462.23 181.262 462.269C182.225 462.269 183.034 461.845 183.728 460.959C186.695 457.221 188.159 453.676 190.51 441.114C190.895 438.994 191.396 436.721 191.897 434.332C193.669 426.086 195.866 415.836 193.323 413.639C192.706 413.139 191.82 413.061 190.625 413.485C190.009 414.641 186.695 420.845 184.922 424.544C182.996 428.668 181.3 431.673 181.262 431.712L180.761 432.598L180.298 431.673C179.528 430.17 178.294 428.706 177.755 428.976C176.291 429.669 174.634 430.016 174.557 430.055L174.056 430.17L173.902 429.669C173.902 429.592 172.129 423.427 169.509 420.267C168.083 418.572 166.85 418.263 165.54 417.994C164.422 417.763 163.305 417.493 162.11 416.414C159.644 414.256 158.257 413.177 156.793 412.021C156.176 411.52 155.56 411.058 154.828 410.48C154.635 410.287 154.442 410.21 154.211 410.21Z" fill="#1A2E35"/>
<path d="M155.174 410.017L146.504 403.544C145.579 401.694 143.691 397.879 142.651 395.221C141.264 391.598 140.647 389.286 137.41 386.782C134.173 384.277 126.582 381.156 125.619 380.154C124.656 379.152 124.27 383.083 126.004 384.894C127.777 386.743 128.894 387.09 128.894 387.09C128.894 387.09 116.332 385.549 116.332 386.512C116.294 387.475 127.006 400.962 130.86 404.122C132.478 405.471 136.1 406.704 138.142 408.206C139.337 409.093 140.223 409.94 140.917 410.673C140.454 410.942 140.3 410.942 140.223 410.904C140.647 411.52 147.313 421.038 149.356 420.614C151.475 420.152 158.218 419.612 155.174 410.017Z" fill="white"/>
<path d="M149.279 421.192C147.044 421.192 142.381 414.988 139.722 411.212L138.142 408.938C138.027 408.861 137.911 408.746 137.757 408.669C136.794 407.975 135.484 407.32 134.173 406.703C132.709 405.971 131.322 405.316 130.436 404.584C127.199 401.925 115.639 388.053 115.677 386.473C115.677 386.242 115.793 386.05 115.947 385.934C116.718 385.279 121.612 385.626 126.39 386.165C126.12 385.934 125.812 385.664 125.503 385.317C124.155 383.892 123.924 381.503 124.232 380.308C124.424 379.653 124.771 379.422 125.041 379.383C125.234 379.345 125.619 379.306 126.004 379.692C126.351 380.038 128.162 380.925 129.896 381.811C132.555 383.121 135.869 384.778 137.757 386.242C140.801 388.593 141.61 390.828 142.766 393.872C142.882 394.219 143.036 394.565 143.19 394.951C144.192 397.494 145.926 401.078 146.928 403.081L155.637 409.593L155.714 409.786C156.831 413.254 156.793 415.951 155.637 417.878C154.172 420.306 151.398 420.807 149.857 421.076C149.702 421.115 149.548 421.115 149.433 421.154C149.433 421.192 149.356 421.192 149.279 421.192ZM141.225 411.212C144.809 416.26 148.354 420.152 149.24 419.998C149.356 419.959 149.51 419.959 149.702 419.92C151.128 419.651 153.479 419.227 154.635 417.3C155.56 415.72 155.598 413.408 154.635 410.403L146.003 403.968L145.926 403.852C144.924 401.848 143.075 398.111 142.073 395.452C141.919 395.066 141.803 394.72 141.649 394.373C140.531 391.406 139.799 389.44 137.025 387.283C135.252 385.895 131.977 384.277 129.395 382.967C127.392 381.965 126.081 381.31 125.465 380.848C125.311 381.618 125.426 383.429 126.467 384.508C128.047 386.165 129.087 386.512 129.126 386.512L128.856 387.706C124.078 387.128 118.799 386.666 117.18 386.859C118.683 389.363 127.623 400.654 131.283 403.698C132.054 404.353 133.364 404.969 134.751 405.663C136.1 406.318 137.487 407.012 138.528 407.744C139.876 408.707 140.801 409.671 141.379 410.287L141.919 410.865L141.225 411.212Z" fill="#1A2E35"/>
<path d="M116.643 371.575L115.305 372.486L132.701 398.028L134.039 397.117L116.643 371.575Z" fill="#1A2E35"/>
<path d="M132.555 398.881L114.444 372.332L116.833 370.713L134.944 397.263L132.555 398.881ZM116.178 372.64L132.863 397.147L133.21 396.916L116.525 372.409L116.178 372.64Z" fill="#1A2E35"/>
<path d="M120.224 379.692C120.224 379.692 113.558 386.936 114.329 387.591C115.138 388.246 117.72 390.751 118.375 390.443C119.03 390.134 122.575 384.316 122.767 383.661C122.96 383.044 120.224 379.692 120.224 379.692Z" fill="white"/>
<path d="M118.259 391.098C117.488 391.098 116.41 390.25 114.56 388.593C114.329 388.362 114.097 388.169 113.943 388.053C113.789 387.899 113.674 387.707 113.674 387.475C113.597 386.165 117.45 381.772 119.762 379.268L120.263 378.728L120.725 379.268C123.654 382.851 123.461 383.545 123.384 383.776C123.23 384.277 121.958 386.396 121.303 387.475C119.3 390.674 118.876 390.866 118.683 390.982C118.529 391.097 118.413 391.098 118.259 391.098ZM114.945 387.283C115.061 387.398 115.215 387.514 115.369 387.668C115.986 388.207 117.566 389.633 118.144 389.826C118.876 389.055 121.766 384.47 122.112 383.545C121.997 383.121 121.111 381.811 120.147 380.616C117.797 383.314 115.292 386.358 114.945 387.283Z" fill="#1A2E35"/>
<path d="M123.577 384.508C123.577 384.508 118.529 391.945 118.991 392.6C119.454 393.255 125.85 400.731 126.659 401.27C127.469 401.771 131.977 397.455 131.977 397.455L123.577 384.508Z" fill="white"/>
<path d="M126.814 401.925C126.582 401.925 126.467 401.848 126.351 401.771C125.349 401.155 118.799 393.371 118.49 392.947C118.221 392.6 117.758 391.945 123.037 384.161L123.577 383.391L132.786 397.533L132.401 397.879C128.856 401.309 127.43 401.925 126.814 401.925ZM119.608 392.369C120.533 393.525 125.927 399.806 126.929 400.654C127.584 400.461 129.511 398.881 131.206 397.34L123.577 385.626C121.689 388.439 119.8 391.56 119.608 392.369Z" fill="#1A2E35"/>
<path d="M122.035 396.877L121.457 396.531C121.265 396.184 121.072 395.837 125.735 388.477L126.775 389.132C124.81 392.215 122.729 395.721 122.613 396.261C122.613 396.222 122.613 396.03 122.498 395.837L122.035 396.184V396.877Z" fill="#1A2E35"/>
<path d="M128.971 393.583L124.617 398.733L125.559 399.529L129.913 394.379L128.971 393.583Z" fill="#1A2E35"/>
<path d="M128.933 387.09L132.979 388.978C132.979 388.978 131.977 398.92 137.449 402.311" fill="white"/>
<path d="M137.141 402.812C134.751 401.347 133.133 398.419 132.555 394.45C132.208 392.176 132.285 390.211 132.324 389.325L128.663 387.629L129.164 386.512L133.595 388.593L133.557 389.017C133.557 389.094 132.632 398.611 137.757 401.771L137.141 402.812Z" fill="#1A2E35"/>
<path d="M140.263 410.866C140.223 410.866 140.223 410.826 140.263 410.866C140.223 410.826 140.223 410.866 140.263 410.866Z" fill="white"/>
<path d="M142.728 413.331L139.877 411.366C139.723 411.25 139.607 411.096 139.607 410.904L139.376 408.553L142.728 413.331ZM140.609 410.364L140.301 410.827L140.879 410.788C140.84 410.595 140.724 410.48 140.609 410.364Z" fill="#1A2E35"/>
<path d="M184.807 462.885C184.807 462.885 146.89 417.608 142.767 412.715C138.643 407.821 129.357 405.817 123.924 407.513C118.49 409.208 111.863 424.429 110.514 430.71C109.204 436.991 98.4145 464.195 96.5649 467.74C94.6768 471.324 91.9024 475.177 91.8638 476.68C91.8253 478.183 91.8253 479.378 91.8253 479.378L89.9372 483.539C89.9372 483.539 98.6457 484.618 102.268 484.079C105.89 483.539 111.092 479.455 112.017 477.335C112.942 475.254 115.639 470.091 118.837 467.856C123.423 464.619 131.361 443.118 131.361 443.118L146.35 475.91C146.35 475.91 176.059 480.11 182.687 479.339C189.315 478.607 184.807 462.885 184.807 462.885Z" fill="#002C5F"/>
<path d="M185.076 461.305C185.076 461.305 180.26 467.471 180.26 468.704C180.221 469.937 180.221 469.937 180.221 469.937L153.903 472.557C153.903 472.557 126.698 472.017 122.613 472.865C118.529 473.713 59.4186 489.435 55.6809 490.013C51.9046 490.552 50.0935 487.392 48.5522 487.354C46.9723 487.315 45.4695 486.044 43.2731 486.005C41.0767 485.967 39.15 489.049 37.8784 489.358C36.6068 489.627 36.2985 489.936 35.3737 489.936C34.4489 489.936 35.104 487.739 34.4489 489.936C33.7939 492.093 32.0984 498.336 33.6012 501.187C35.104 504.039 37.5701 505.657 37.5701 505.657C37.5701 505.657 88.2416 505.696 96.6805 505.888C105.119 506.043 131.129 503.769 134.251 503.499C137.372 503.23 182.687 506.004 189.854 506.158C197.06 506.312 220.797 506.12 224.92 503.731C229.043 501.303 234.322 487.662 233.474 482.306C232.627 476.988 189.161 461.729 189.161 461.729L185.076 461.305Z" fill="#002C5F"/>
<path d="M183.304 456.874C183.304 456.874 182.649 458.107 182.918 460.303C183.188 462.5 232.126 485.967 233.705 485.081C235.285 484.156 236.403 475.139 236.403 475.139L183.342 454.1L183.304 456.874Z" fill="#005ED4"/>
<path d="M233.628 485.659C232.896 485.659 230.623 485.004 221.76 480.996C215.248 478.068 207.117 474.176 199.95 470.592C182.572 461.883 182.456 460.843 182.379 460.381C182.148 458.415 182.572 457.144 182.764 456.758L182.841 453.252L237.058 474.754L237.019 475.177C236.75 477.374 235.748 484.58 234.052 485.543C233.898 485.581 233.821 485.659 233.628 485.659ZM183.458 460.149C184.19 461.151 192.821 465.968 208.042 473.328C222.377 480.264 232.126 484.426 233.513 484.541C234.283 483.886 235.285 479.455 235.825 475.486L183.92 454.87L183.882 457.028L183.805 457.144C183.766 457.182 183.227 458.261 183.458 460.149Z" fill="#1A2E35"/>
<path d="M204.15 381.926C204.15 381.926 195.172 394.257 191.82 403.89C188.506 413.524 183.15 446.547 181.223 450.593C179.258 454.639 179.219 457.105 182.032 457.799C184.845 458.492 211.51 470.245 220.489 473.867C229.505 477.489 237.559 480.765 238.908 475.177C240.256 469.59 240.333 466.122 240.179 457.683C240.025 449.244 239.871 409.516 239.177 397.918C238.484 386.319 232.28 367.438 224.111 367.9C215.942 368.363 204.15 381.926 204.15 381.926Z" fill="#005ED4"/>
<path d="M234.63 478.723C231.085 478.723 226.076 476.719 220.45 474.445L220.257 474.368C216.597 472.904 210.2 470.168 203.418 467.24C194.093 463.232 183.496 458.724 181.878 458.3C180.722 458.03 179.951 457.452 179.566 456.604C178.911 455.256 179.296 453.252 180.722 450.285C181.608 448.435 183.342 439.765 185.192 430.594C187.234 420.344 189.546 408.746 191.319 403.659C194.633 394.065 203.611 381.657 203.727 381.541L203.765 381.503C204.266 380.925 215.865 367.785 224.111 367.322C226.847 367.168 230.97 368.902 234.977 378.15C237.52 383.969 239.37 391.714 239.755 397.841C240.295 406.511 240.526 430.363 240.642 446.162C240.68 451.364 240.719 455.487 240.757 457.606C240.911 466.084 240.834 469.59 239.447 475.216C239.1 476.565 238.407 477.528 237.328 478.106C236.596 478.568 235.671 478.723 234.63 478.723ZM204.574 382.273C204.15 382.851 195.557 394.797 192.359 404.083C190.625 409.093 188.313 420.653 186.271 430.864C184.344 440.497 182.687 448.859 181.724 450.824C180.491 453.368 180.106 455.14 180.568 456.18C180.838 456.72 181.339 457.067 182.148 457.259C183.843 457.683 193.554 461.845 203.842 466.238C210.624 469.128 217.059 471.902 220.681 473.366L220.874 473.443C227.579 476.141 233.937 478.684 236.827 477.181C237.597 476.796 238.098 476.064 238.368 475.023C239.717 469.513 239.794 466.084 239.64 457.683C239.601 455.525 239.563 451.441 239.524 446.2C239.37 431.365 239.177 406.588 238.638 397.956C237.906 385.934 231.625 368.478 224.419 368.478C224.342 368.478 224.265 368.478 224.149 368.478C216.481 368.941 205.075 381.695 204.574 382.273Z" fill="#1A2E35"/>
<path d="M221.182 338.499C220.219 331.678 216.982 326.13 211.395 322.662C214.631 319.155 218.523 321.544 218.523 321.544C218.523 321.544 219.255 318.885 217.098 317.961C215.017 317.074 213.244 318.461 213.244 318.461C213.244 318.461 213.591 314.916 216.019 313.182C218.408 311.448 223.109 313.915 223.109 313.915C223.109 313.915 222.107 304.705 216.134 306.362C210.162 308.019 210.971 313.067 210.971 313.067C210.971 313.067 209.853 308.905 206.308 308.52C202.763 308.173 200.027 311.063 200.027 311.063C200.027 311.063 203.033 308.443 206.231 312.951C208.659 316.419 207.965 319.463 207.503 320.696C206.578 320.35 205.615 320.003 204.613 319.733C196.251 317.537 186.656 319.926 182.61 324.01C179.951 324.742 176.329 326.053 173.632 328.326C169.162 332.102 173.362 337.304 173.94 338.036C174.287 339.886 174.287 339.925 174.287 339.925C174.287 339.925 175.289 348.556 176.137 351.215C176.984 353.912 178.449 354.799 178.41 356.301C178.371 357.766 175.905 363.083 177.639 364.894C179.373 366.705 180.876 366.127 180.876 366.127C180.876 366.127 187.697 380.5 190.702 379.344C193.708 378.227 198.833 372.986 198.833 372.986L205.576 377.264L217.984 363.584L215.71 357.611C215.787 357.689 222.492 347.708 221.182 338.499Z" fill="white"/>
<path d="M190.355 380.115C189.276 380.115 187.465 378.998 184.151 373.564C182.494 370.829 181.069 367.939 180.529 366.898C179.836 366.937 178.564 366.783 177.215 365.395C175.751 363.854 176.676 360.656 177.331 358.344C177.562 357.535 177.793 356.725 177.793 356.379C177.793 355.801 177.485 355.261 177.023 354.567C176.56 353.797 175.982 352.872 175.558 351.523C174.711 348.826 173.709 340.464 173.67 340.117L173.362 338.46C172.745 337.69 170.742 334.992 170.973 332.102C171.089 330.523 171.859 329.135 173.208 328.018C175.982 325.706 179.643 324.357 182.263 323.625C186.348 319.656 195.827 316.959 204.767 319.309C205.537 319.502 206.308 319.772 207.117 320.041C207.464 318.693 207.657 316.227 205.73 313.452C204.728 312.027 203.649 311.217 202.57 311.102C201.337 310.948 200.49 311.641 200.451 311.68L199.603 310.793C199.719 310.678 202.57 307.672 206.385 308.058C208.466 308.289 209.776 309.599 210.585 310.832C211.048 309.098 212.396 306.902 215.98 305.9C217.521 305.476 218.909 305.669 220.103 306.478C223.109 308.52 223.687 313.761 223.725 313.992L223.841 315.148L222.8 314.608C221.606 313.992 218.061 312.605 216.365 313.838C215.055 314.801 214.4 316.381 214.092 317.46C214.901 317.151 216.057 316.997 217.329 317.537C219.448 318.423 219.41 320.774 219.101 321.853L218.87 322.623L218.176 322.199C218.061 322.122 215.055 320.35 212.358 322.7C217.56 326.207 220.797 331.679 221.76 338.538C222.454 343.431 220.912 348.518 219.487 351.909C218.215 354.914 216.866 357.111 216.404 357.881L218.677 363.931L205.653 378.304L198.91 374.027C197.677 375.26 193.554 379.19 190.895 380.192C190.779 380.077 190.586 380.115 190.355 380.115ZM181.223 365.434L181.454 365.935C184.652 372.64 189.045 379.383 190.509 378.844C193.322 377.765 198.37 372.678 198.409 372.64L198.756 372.293L205.46 376.57L217.29 363.546L215.055 357.612L215.248 357.342C215.325 357.226 221.799 347.477 220.566 338.615C219.602 331.833 216.327 326.515 211.086 323.24L210.47 322.854L210.971 322.315C213.591 319.463 216.635 320.157 218.061 320.697C218.099 320.003 217.907 319.04 216.905 318.577C215.209 317.845 213.745 318.963 213.668 319.001L212.512 319.887L212.666 318.462C212.666 318.307 213.09 314.608 215.672 312.759C217.598 311.371 220.681 312.296 222.338 312.951C222.03 311.41 221.221 308.636 219.448 307.441C218.562 306.825 217.56 306.709 216.365 307.056C211.048 308.559 211.626 312.913 211.626 313.067L210.431 313.337C210.431 313.298 209.391 309.56 206.308 309.252C205.075 309.137 203.919 309.445 202.994 309.869C204.343 310.138 205.615 311.063 206.771 312.72C209.391 316.458 208.582 319.772 208.119 321.043L207.888 321.621L207.31 321.39C206.308 321.005 205.383 320.697 204.497 320.465C197.908 318.731 187.851 319.81 183.072 324.55L182.957 324.665L182.803 324.704C180.26 325.398 176.714 326.669 174.056 328.904C172.938 329.829 172.36 330.908 172.245 332.141C172.013 334.761 174.056 337.227 174.441 337.728L174.557 337.844L174.595 337.998C174.942 339.848 174.942 339.886 174.942 339.886C174.942 340.002 175.982 348.518 176.792 351.099C177.177 352.333 177.678 353.142 178.14 353.874C178.68 354.722 179.104 355.415 179.104 356.379C179.104 356.879 178.872 357.689 178.603 358.652C178.063 360.579 177.215 363.507 178.179 364.509C179.604 365.973 180.722 365.627 180.76 365.588L181.223 365.434Z" fill="#1A2E35"/>
<path d="M179.528 337.844C183.15 336.11 192.359 333.991 190.779 336.803C189.199 339.578 188.853 344.433 190.856 344.973C192.899 345.512 197.176 348.402 198.679 349.481C200.181 350.521 201.993 349.789 202.031 348.286C202.07 346.745 203.65 343.701 206.925 345.319C210.2 346.899 210.393 349.982 209.584 353.566C208.736 357.111 206.154 358.613 206.154 358.613C206.154 358.613 210.085 361.773 216.096 358.729L215.71 357.689C215.71 357.689 222.415 347.747 221.144 338.537C220.18 331.717 216.944 326.168 211.356 322.7C214.593 319.194 218.485 321.583 218.485 321.583C218.485 321.583 219.217 318.924 217.059 317.999C214.978 317.113 213.206 318.5 213.206 318.5C213.206 318.5 213.553 314.955 215.98 313.221C218.369 311.487 223.07 313.953 223.07 313.953C223.07 313.953 222.069 304.744 216.096 306.401C210.123 308.057 210.932 313.105 210.932 313.105C210.932 313.105 209.815 308.944 206.27 308.558C202.725 308.212 199.989 311.102 199.989 311.102C199.989 311.102 202.994 308.481 206.193 312.99C208.62 316.458 207.927 319.502 207.464 320.735C206.54 320.388 205.576 320.041 204.574 319.772C196.213 317.575 186.618 319.964 182.572 324.049C179.913 324.781 176.291 326.091 173.593 328.365C169.124 332.141 173.324 337.343 173.902 338.075C173.979 338.114 175.905 339.578 179.528 337.844Z" fill="#1A2E35"/>
<path d="M211.009 360.656C207.849 360.656 205.923 359.153 205.807 359.076L205.114 358.498L205.884 358.035C205.923 358.035 208.235 356.61 209.005 353.373C209.969 349.327 209.275 347.092 206.693 345.859C205.692 345.358 204.805 345.358 204.073 345.782C203.11 346.36 202.686 347.593 202.647 348.287C202.647 349.173 202.147 349.905 201.376 350.329C200.451 350.791 199.295 350.676 198.332 350.021C195.673 348.171 192.282 346.052 190.702 345.628C190.24 345.512 189.623 345.165 189.199 344.202C188.429 342.352 188.891 338.846 190.201 336.572C190.278 336.457 190.278 336.38 190.317 336.341C189.585 335.648 183.342 336.804 179.759 338.499C175.867 340.349 173.67 338.73 173.593 338.653L173.516 338.576C173.054 338.037 170.78 335.185 171.011 332.102C171.127 330.523 171.898 329.135 173.246 328.018C176.021 325.706 179.682 324.357 182.302 323.625C186.386 319.656 195.866 316.959 204.805 319.309C205.576 319.502 206.347 319.772 207.156 320.041C207.503 318.693 207.695 316.227 205.769 313.452C204.767 312.027 203.688 311.217 202.57 311.102C201.376 310.948 200.49 311.68 200.49 311.68L199.642 310.793C199.757 310.678 202.609 307.672 206.424 308.058C208.505 308.289 209.815 309.599 210.585 310.832C211.125 308.944 212.589 306.863 216.019 305.9C217.56 305.476 218.947 305.669 220.142 306.478C223.147 308.52 223.725 313.761 223.764 313.992L223.879 315.148L222.839 314.608C221.644 313.992 218.099 312.605 216.404 313.838C215.094 314.801 214.439 316.381 214.13 317.46C214.94 317.151 216.096 316.997 217.367 317.537C219.487 318.423 219.448 320.774 219.14 321.853L218.909 322.623L218.215 322.199C218.099 322.122 215.094 320.35 212.396 322.7C217.598 326.207 220.835 331.679 221.799 338.538C223.032 347.13 217.56 356.147 216.442 357.881L216.905 359.153L216.404 359.384C214.362 360.27 212.551 360.656 211.009 360.656ZM207.31 358.536C208.582 359.191 211.433 360.193 215.402 358.382L215.094 357.573L215.286 357.303C215.363 357.188 221.837 347.439 220.604 338.576C219.641 331.794 216.365 326.477 211.125 323.201L210.508 322.816L211.009 322.276C213.629 319.425 216.674 320.119 218.099 320.658C218.138 319.964 217.945 319.001 216.943 318.539C215.248 317.807 213.784 318.924 213.707 318.963L212.551 319.849L212.705 318.423C212.705 318.269 213.129 314.57 215.71 312.72C217.637 311.333 220.72 312.258 222.377 312.913C222.068 311.371 221.259 308.597 219.487 307.403C218.6 306.786 217.598 306.67 216.404 307.017C211.048 308.52 211.664 312.874 211.664 313.028L210.47 313.298C210.47 313.26 209.429 309.522 206.347 309.214C205.114 309.098 203.958 309.406 203.033 309.83C204.381 310.1 205.653 311.025 206.809 312.682C209.429 316.419 208.62 319.733 208.158 321.005L207.927 321.583L207.349 321.352C206.347 320.966 205.422 320.658 204.536 320.427C197.946 318.693 187.889 319.772 183.111 324.511L182.995 324.627L182.841 324.665C180.298 325.359 176.753 326.631 174.094 328.866C172.977 329.79 172.399 330.869 172.283 332.102C172.09 334.607 173.94 337.035 174.441 337.613C174.711 337.805 176.368 338.692 179.296 337.266C181.685 336.148 189.7 333.682 191.319 335.416C191.55 335.648 191.858 336.226 191.357 337.073C190.24 339.038 189.777 342.121 190.394 343.624C190.548 344.009 190.779 344.279 191.049 344.356C193.168 344.934 197.368 347.747 199.064 348.942C199.757 349.443 200.451 349.365 200.836 349.173C201.222 348.98 201.414 348.633 201.414 348.209C201.453 347.053 202.147 345.474 203.418 344.664C204.189 344.202 205.46 343.817 207.233 344.664C211.317 346.63 210.894 350.714 210.2 353.604C209.622 356.224 208.196 357.766 207.31 358.536Z" fill="#1A2E35"/>
<path d="M184.152 355.377C182.957 355.377 182.148 355.145 182.071 355.107L181.608 354.953L181.685 351.177L182.918 351.215L182.88 354.028C183.843 354.221 186.232 354.413 188.275 352.641L189.084 353.566C187.427 355.03 185.539 355.377 184.152 355.377Z" fill="#1A2E35"/>
<path d="M179.065 348.44L178.102 347.67C178.14 347.631 181.377 343.508 186.309 346.128L185.731 347.207C181.685 345.127 179.142 348.286 179.065 348.44Z" fill="#1A2E35"/>
<path d="M185.115 367.206L185.076 365.973C185.23 365.973 189.122 365.742 191.55 361.079L192.629 361.657C189.854 366.975 185.308 367.206 185.115 367.206Z" fill="#1A2E35"/>
<path d="M192.899 372.37C190.317 373.603 187.08 370.212 185.539 369.942C184.306 369.711 184.537 372.177 184.652 373.14C186.733 376.647 189.238 379.999 190.741 379.46C193.746 378.342 198.871 373.102 198.871 373.102L199.103 373.256C199.642 372.254 200.336 370.751 200.374 369.48C200.413 367.399 195.48 371.137 192.899 372.37Z" fill="#1A2E35"/>
<path d="M190.356 380.115C189.238 380.115 187.427 378.998 184.113 373.449L184.036 373.333V373.218C183.805 371.406 183.959 370.173 184.537 369.634C184.845 369.364 185.231 369.249 185.654 369.326C186.271 369.441 187.003 369.904 187.812 370.405C189.315 371.329 191.203 372.485 192.629 371.83C193.323 371.484 194.209 370.983 195.172 370.405C197.831 368.825 199.526 367.861 200.451 368.401C200.644 368.516 200.991 368.825 200.991 369.48C200.952 370.828 200.259 372.408 199.642 373.526L199.334 374.104L198.948 373.873C197.715 375.106 193.592 379.036 190.934 380.038C190.779 380.076 190.587 380.115 190.356 380.115ZM185.231 372.909C189.007 379.19 190.355 378.882 190.51 378.843C193.323 377.764 198.37 372.678 198.409 372.64L198.756 372.293L198.833 372.331C199.372 371.214 199.681 370.212 199.719 369.48C199.026 369.518 197.022 370.713 195.75 371.445C194.787 372.023 193.862 372.562 193.13 372.909C191.088 373.873 188.814 372.485 187.157 371.445C186.464 371.021 185.809 370.597 185.423 370.52C185.385 370.52 185.385 370.52 185.385 370.52C185.269 370.597 185.038 371.329 185.231 372.909Z" fill="#1A2E35"/>
<path d="M231.162 360.579C231.162 360.579 221.837 357.573 216.404 363.43C210.971 369.249 196.251 386.473 199.372 386.55C202.493 386.628 207.965 377.958 214.285 375.26C220.604 372.563 224.342 372.64 226.461 377.071C228.581 381.503 235.825 409.786 238.753 404.815C241.682 399.883 246.845 389.98 244.225 380.539C241.566 371.099 234.245 362.506 231.162 360.579Z" fill="white"/>
<path d="M237.944 406.01C237.906 406.01 237.829 406.01 237.79 406.01C235.517 405.74 233.05 399.151 228.658 385.394C227.463 381.695 226.461 378.535 225.883 377.341C224.072 373.488 220.989 373.102 214.516 375.838C211.395 377.187 208.428 380.038 205.846 382.581C203.226 385.163 201.106 387.205 199.334 387.167C198.871 387.167 198.524 386.936 198.37 386.55C198.139 386.011 197.677 384.855 204.921 375.761C208.736 370.983 213.283 365.781 215.903 363.006C221.529 356.957 230.893 359.885 231.316 360.001L231.394 360.039L231.471 360.078C234.707 362.12 242.144 370.867 244.803 380.385C246.768 387.398 244.957 395.49 239.254 405.162C238.83 405.817 238.33 406.01 237.944 406.01ZM221.105 372.794C223.533 372.794 225.614 373.834 227.001 376.763C227.617 378.034 228.581 381.117 229.814 385.009C231.201 389.325 232.742 394.18 234.284 398.11C236.673 404.314 237.752 404.738 237.944 404.738C237.983 404.738 238.098 404.661 238.214 404.468C243.724 395.105 245.497 387.321 243.647 380.655C241.104 371.522 234.052 363.122 230.931 361.118C230.083 360.849 221.76 358.614 216.905 363.816C210.123 371.098 199.989 383.468 199.603 385.895C200.875 385.741 202.917 383.776 205.037 381.695C207.695 379.075 210.74 376.108 214.092 374.682C216.481 373.642 218.909 372.794 221.105 372.794Z" fill="#1A2E35"/>
<path d="M207.349 394.18C207.349 394.18 199.565 407.782 198.794 415.258C198.024 422.733 195.519 453.984 195.519 453.984C195.519 453.984 192.436 452.057 190.818 453.907C189.199 455.757 188.197 459.803 188.197 459.803C188.197 459.803 183.843 458.454 182.88 460.342C181.917 462.192 180.953 463.425 180.953 463.425L153.864 472.596C153.864 472.596 196.675 474.985 200.104 474.754C203.534 474.522 205.769 472.364 205.769 472.364C205.769 472.364 208.543 474.599 213.283 472.827C218.022 471.054 219.602 468.896 220.951 465.159C222.261 461.421 228.465 415.913 228.465 415.913" fill="#005ED4"/>
<path d="M199.372 475.293C192.667 475.293 155.521 473.212 153.864 473.135L150.974 472.981L180.606 462.962C180.876 462.615 181.647 461.536 182.379 460.072C183.342 458.261 186.463 458.801 187.812 459.109C188.159 457.914 189.084 455.063 190.394 453.522C191.743 451.942 193.862 452.597 195.018 453.098C195.403 448.088 197.523 421.924 198.216 415.219C198.987 407.705 206.501 394.45 206.848 393.91L207.811 394.45C207.734 394.604 200.104 408.052 199.334 415.335C198.563 422.733 196.097 453.714 196.058 454.022L195.981 454.947L195.211 454.446C195.172 454.446 192.513 452.789 191.242 454.254C189.739 455.988 188.737 459.88 188.737 459.918L188.583 460.496L188.005 460.342C187.003 460.034 183.959 459.417 183.342 460.573C182.34 462.461 181.377 463.694 181.339 463.733L181.223 463.849L156.716 472.133C166.388 472.673 197.137 474.33 199.989 474.137C203.187 473.906 205.306 471.902 205.306 471.902L205.653 471.555L206.038 471.863C206.154 471.941 208.659 473.867 212.974 472.249C217.598 470.515 219.063 468.395 220.296 464.927C221.567 461.305 227.733 416.221 227.81 415.797L228.927 415.951C228.658 417.801 222.685 461.575 221.375 465.313C220.065 469.05 218.369 471.44 213.398 473.328C209.391 474.831 206.694 473.636 205.73 473.058C204.96 473.675 202.917 475.1 200.066 475.293C200.027 475.293 199.758 475.293 199.372 475.293Z" fill="#1A2E35"/>
<path d="M153.903 472.557C153.903 472.557 166.927 473.289 179.142 473.905C177.37 471.015 178.179 466.854 179.142 464.002L153.903 472.557Z" fill="white"/>
<path d="M180.298 474.56L179.142 474.483C167.043 473.867 154.018 473.135 153.903 473.135L150.704 472.942L180.144 462.962L179.759 464.118C178.834 466.931 178.063 470.823 179.72 473.482L180.298 474.56ZM157.14 472.133C161.571 472.364 169.971 472.826 178.14 473.25C177.1 470.707 177.524 467.586 178.217 465.004L157.14 472.133Z" fill="#1A2E35"/>
<path d="M579.774 504.193H0V505.426H579.774V504.193Z" fill="#1A2E35"/>
</svg>
