<svg width="688" height="479" viewBox="0 0 688 479" fill="none" xmlns="http://www.w3.org/2000/svg">
<path d="M73.2786 477.737C73.2786 477.737 -13.3983 454.806 1.78484 362.376C16.9289 269.986 75.6265 248.659 92.101 201.192C108.536 153.725 76.8396 57.4613 136.711 25.7645C196.583 -5.93226 261.933 -12.3499 350.019 58.5961C438.065 129.542 483.028 96.3583 566.496 114.907C697.94 144.099 756.637 360.42 562.622 477.698H73.2786V477.737Z" fill="#DAEAFF"/>
<path d="M483.341 178.379C488.31 167.656 492.419 159.634 495.393 154.117C500.011 149.891 520.046 130.951 515.546 123.242C511.555 116.433 500.715 139.482 496.332 150.008C493.202 155.604 488.076 165.309 481.541 179.552C482.715 173.213 487.215 146.33 479.036 142.886C470.271 139.208 479.584 176.265 481.071 180.492C475.867 191.879 469.801 206.123 463.188 223.419C465.262 211.406 469.84 178.848 459.236 174.387C447.222 169.339 459.353 218.528 461.936 226.706C456.848 240.168 451.409 255.39 445.774 272.53L446.87 272.882C452.427 255.938 457.788 240.872 462.836 227.528C468.314 225.063 506.937 207.375 504.159 194.501C501.459 182.096 469.84 217.941 463.344 226.158C470.427 207.532 476.884 192.349 482.362 180.413C487.645 178.026 513.159 165.974 511.242 157.169C509.442 148.912 489.602 170.787 483.341 178.379Z" fill="white"/>
<path d="M567.083 256.329L577.766 254.686C588.449 221.541 576.2 196.301 576.2 196.301C552.447 197.123 529.751 214.771 529.751 214.771L524.273 204.871C501.302 210.075 471.562 242.829 471.562 242.829L469.684 261.377C469.684 261.377 460.879 254.999 459.314 256.368C457.748 257.738 442.37 301.957 442.37 301.957V373.255C456.809 348.837 469.997 327.94 481.815 310.174C481.854 310.057 481.932 309.9 482.049 309.783C482.049 309.744 482.088 309.705 482.167 309.666C489.21 299.061 495.785 289.552 501.811 281.099C502.163 277.93 505.059 254.372 511.046 242.242C516.877 230.385 511.163 220.563 511.085 220.484C510.694 219.819 510.889 218.997 511.555 218.606C512.22 218.215 513.042 218.41 513.433 219.076C513.707 219.545 519.968 230.267 513.472 243.455C509.129 252.338 506.389 268.147 505.176 276.404C511.75 267.325 517.659 259.538 522.903 252.885C551.508 216.61 566.535 205.692 567.161 205.223C567.787 204.792 568.648 204.91 569.078 205.536C569.509 206.162 569.392 207.023 568.765 207.453C568.609 207.571 553.308 218.762 524.899 254.803C515.311 266.934 503.494 282.9 489.602 303.444C497.389 298.122 511.555 291 533.782 288.574C568.687 284.817 573.461 283.252 573.618 283.173C574.322 282.9 575.105 283.252 575.379 283.956C575.653 284.66 575.3 285.443 574.596 285.756C574.166 285.913 569.47 287.517 534.055 291.313C500.872 294.874 486.041 309.509 484.241 311.387C482.636 313.814 480.993 316.279 479.31 318.822C481.11 317.531 483.223 316.083 485.689 314.596C493.867 309.744 507.563 303.522 526.425 301.605C561.448 298.044 567.278 296.322 567.513 296.243C568.218 296.009 569 296.4 569.235 297.144C569.47 297.848 569.078 298.63 568.374 298.865C568.139 298.944 562.465 300.704 526.738 304.344C491.676 307.905 474.419 326.571 474.262 326.766C474.223 326.805 474.145 326.884 474.106 326.923C464.323 342.145 453.718 359.324 442.331 378.655V474.684C531.277 426.239 558.317 359.207 558.317 359.207L548.769 344.571L563.365 346.058C585.788 294.091 580.309 266.034 580.309 266.034L567.083 256.329Z" fill="white"/>
<path d="M257.746 309.118C246.593 301.448 214.31 341.323 208.753 331.697C203.196 322.07 196.544 253.981 187.896 253.864C179.248 253.746 175.687 291.195 160.699 302.935C146.338 314.205 101.532 249.716 87.953 259.577C114.015 289.121 219.514 409.726 255.007 464.902C255.398 465.528 255.241 466.389 254.615 466.78C254.381 466.936 254.146 467.015 253.872 467.015C253.402 467.015 252.972 466.78 252.737 466.389C217.44 411.526 112.606 291.665 86.1921 261.651C75.8613 279.26 122.193 319.057 123.954 344.063C125.715 369.224 76.4092 345.041 72.8873 367.737C69.3654 390.434 150.251 387.264 159.447 406.243C168.643 425.261 120.432 423.265 112.215 441.07C103.997 458.836 262.129 477.463 262.129 477.463C262.129 477.463 268.898 316.788 257.746 309.118Z" fill="white"/>
<path d="M42.5994 430.583C30.8207 430.583 21.2725 421.035 21.2725 409.256C21.2725 397.478 30.8207 387.929 42.5994 387.929C54.378 387.929 63.9262 397.478 63.9262 409.256C63.9262 421.035 54.3389 430.583 42.5994 430.583ZM42.5994 389.103C31.4859 389.103 22.4465 398.143 22.4465 409.256C22.4465 420.37 31.4859 429.409 42.5994 429.409C53.7128 429.409 62.7522 420.37 62.7522 409.256C62.7522 398.143 53.7128 389.103 42.5994 389.103Z" fill="#0E2549"/>
<path d="M55.3954 417.983H29.7641V401.352H55.3954V417.983ZM30.9381 416.809H54.2215V402.525H30.9381V416.809Z" fill="#0E2549"/>
<path d="M39.3123 414.617V404.717L46.3169 409.647L39.3123 414.617ZM40.4863 406.986V412.347L44.2821 409.686L40.4863 406.986Z" fill="#0E2549"/>
<path d="M37.0034 293.778C29.7641 293.778 23.8943 287.908 23.8943 280.669C23.8943 273.43 29.7641 267.56 37.0034 267.56C44.2428 267.56 50.1126 273.43 50.1126 280.669C50.1126 287.908 44.2037 293.778 37.0034 293.778ZM37.0034 268.734C30.4293 268.734 25.0682 274.095 25.0682 280.669C25.0682 287.243 30.4293 292.604 37.0034 292.604C43.5776 292.604 48.9386 287.243 48.9386 280.669C48.9386 274.095 43.5776 268.734 37.0034 268.734Z" fill="#0E2549"/>
<path d="M37.0035 286.539C36.6904 286.539 36.4165 286.265 36.4165 285.952V275.856C36.4165 275.543 36.6904 275.269 37.0035 275.269C37.3165 275.269 37.5905 275.543 37.5905 275.856V285.952C37.5905 286.304 37.3165 286.539 37.0035 286.539Z" fill="#0E2549"/>
<path d="M42.0514 281.491H31.9554C31.6423 281.491 31.3684 281.217 31.3684 280.904C31.3684 280.591 31.6423 280.317 31.9554 280.317H42.0514C42.3644 280.317 42.6384 280.591 42.6384 280.904C42.6384 281.217 42.3644 281.491 42.0514 281.491Z" fill="#0E2549"/>
<path d="M175.256 136.821C163.908 136.821 154.673 127.585 154.673 116.237C154.673 104.889 163.908 95.6539 175.256 95.6539C186.604 95.6539 195.839 104.889 195.839 116.237C195.839 127.585 186.604 136.821 175.256 136.821ZM175.256 96.8279C164.534 96.8279 155.847 105.554 155.847 116.237C155.847 126.959 164.573 135.647 175.256 135.647C185.978 135.647 194.665 126.92 194.665 116.237C194.665 105.515 185.939 96.8279 175.256 96.8279Z" fill="#0E2549"/>
<path d="M117.889 70.7661C107.597 70.7661 99.223 62.3918 99.223 52.1002C99.223 41.8085 107.597 33.4343 117.889 33.4343C128.181 33.4343 136.555 41.8085 136.555 52.1002C136.555 62.3918 128.181 70.7661 117.889 70.7661ZM117.889 34.6083C108.223 34.6083 100.397 42.4738 100.397 52.1002C100.397 61.7266 108.262 69.5921 117.889 69.5921C127.515 69.5921 135.381 61.7266 135.381 52.1002C135.381 42.4738 127.554 34.6083 117.889 34.6083Z" fill="#0E2549"/>
<path d="M110.102 50.7697C109.789 50.7697 109.515 50.4958 109.515 50.1827V48.5001C109.515 48.187 109.789 47.9131 110.102 47.9131C110.415 47.9131 110.689 48.187 110.689 48.5001V50.1827C110.689 50.4958 110.415 50.7697 110.102 50.7697Z" fill="#0E2549"/>
<path d="M125.637 50.7697C125.324 50.7697 125.05 50.4958 125.05 50.1827V48.5001C125.05 48.187 125.324 47.9131 125.637 47.9131C125.95 47.9131 126.224 48.187 126.224 48.5001V50.1827C126.224 50.4958 125.95 50.7697 125.637 50.7697Z" fill="#0E2549"/>
<path d="M117.889 62.5876C114.054 62.5876 110.923 59.457 110.923 55.6221V55.0351H124.854V55.6221C124.854 59.4961 121.724 62.5876 117.889 62.5876ZM112.176 56.2482C112.489 59.1439 114.915 61.4136 117.928 61.4136C120.902 61.4136 123.367 59.1439 123.68 56.2482H112.176Z" fill="#0E2549"/>
<path d="M175.608 127.664L175.256 127.39C174.826 127.077 164.651 119.485 163.908 112.794C163.712 111.033 164.182 109.467 165.356 108.176C166.021 107.393 166.882 107.002 167.899 107.002C170.873 106.924 174.473 110.133 175.687 111.307C177.017 110.172 181.087 106.963 183.943 107.198C184.804 107.276 185.509 107.628 186.017 108.293C186.996 109.546 187.387 111.072 187.152 112.794C186.291 119.446 176.391 127.116 175.96 127.429L175.608 127.664ZM167.978 108.176C167.938 108.176 167.938 108.176 167.899 108.176C167.195 108.176 166.647 108.45 166.217 108.959C165.277 110.015 164.925 111.228 165.082 112.676C165.669 118.194 173.808 124.768 175.608 126.177C177.369 124.768 185.313 118.116 186.017 112.598C186.213 111.189 185.9 110.015 185.117 108.998C184.804 108.606 184.413 108.372 183.865 108.333C181.478 108.137 177.447 111.267 176.078 112.52L175.647 112.911L175.256 112.52C175.178 112.481 170.991 108.176 167.978 108.176Z" fill="#0E2549"/>
<path d="M617.132 366.642C605.784 366.642 596.549 357.406 596.549 346.058C596.549 334.71 605.784 325.475 617.132 325.475C628.48 325.475 637.716 334.71 637.716 346.058C637.716 357.406 628.48 366.642 617.132 366.642ZM617.132 326.649C606.41 326.649 597.723 335.375 597.723 346.058C597.723 356.741 606.449 365.468 617.132 365.468C627.815 365.468 636.542 356.741 636.542 346.058C636.542 335.375 627.815 326.649 617.132 326.649Z" fill="#0E2549"/>
<path d="M617.445 357.524L617.093 357.25C616.663 356.937 606.489 349.345 605.745 342.654C605.549 340.893 606.019 339.328 607.193 338.036C607.858 337.254 608.719 336.862 609.736 336.862C609.776 336.862 609.815 336.862 609.854 336.862C612.828 336.862 616.35 340.032 617.524 341.167C618.854 340.032 622.885 336.823 625.781 337.058C626.641 337.136 627.346 337.489 627.855 338.154C628.833 339.406 629.224 340.932 628.989 342.654C628.128 349.306 618.228 356.976 617.798 357.289L617.445 357.524ZM609.854 338.036C609.815 338.036 609.815 338.036 609.776 338.036C609.071 338.036 608.523 338.31 608.093 338.819C607.154 339.876 606.802 341.089 606.958 342.537C607.545 348.054 615.685 354.628 617.485 356.037C619.246 354.628 627.189 347.976 627.894 342.458C628.089 341.05 627.776 339.876 626.994 338.858C626.681 338.467 626.289 338.232 625.741 338.193C623.354 337.997 619.324 341.128 617.954 342.38L617.524 342.771L617.132 342.38C617.054 342.302 612.867 338.036 609.854 338.036Z" fill="#0E2549"/>
<path d="M664.09 179.787H659.003C658.886 177.792 658.26 171.178 655.364 169.456C654.347 168.87 653.173 168.87 651.92 169.535L651.607 169.691V196.849H664.09C666.869 196.849 669.099 194.618 669.099 191.84V184.757C669.099 182.018 666.83 179.787 664.09 179.787ZM664.09 195.675H652.781V170.435C653.564 170.122 654.19 170.122 654.777 170.474C657.125 171.844 657.79 178.105 657.869 180.374V180.961H664.051C665.656 180.961 666.986 181.94 667.573 183.309H661.156C660.843 183.309 660.569 183.583 660.569 183.896C660.569 184.209 660.843 184.483 661.156 184.483H667.847C667.847 184.6 667.847 184.679 667.847 184.796V187.418H661.116C660.803 187.418 660.529 187.692 660.529 188.005C660.529 188.318 660.803 188.592 661.116 188.592H667.847V191.527H661.116C660.803 191.527 660.529 191.801 660.529 192.114C660.529 192.427 660.803 192.701 661.116 192.701H667.73C667.417 194.423 665.891 195.675 664.09 195.675Z" fill="#0E2549"/>
<path d="M649.651 196.849H644.564V178.574H649.651V196.849ZM645.738 195.675H648.477V179.748H645.738V195.675Z" fill="#0E2549"/>
<path d="M654.621 208.471C641.551 208.471 630.946 197.866 630.946 184.796C630.946 171.726 641.551 161.121 654.621 161.121C667.691 161.121 678.295 171.726 678.295 184.796C678.295 197.866 667.651 208.471 654.621 208.471ZM654.621 162.295C642.216 162.295 632.12 172.391 632.12 184.796C632.12 197.201 642.216 207.297 654.621 207.297C667.025 207.297 677.121 197.201 677.121 184.796C677.121 172.391 667.025 162.295 654.621 162.295Z" fill="#0E2549"/>
<path d="M601.675 166.287C597.253 166.287 593.653 162.687 593.653 158.265C593.653 153.843 597.253 150.243 601.675 150.243C606.097 150.243 609.697 153.843 609.697 158.265C609.658 162.726 606.058 166.287 601.675 166.287ZM601.675 151.456C597.919 151.456 594.827 154.508 594.827 158.304C594.827 162.061 597.88 165.152 601.675 165.152C605.471 165.152 608.523 162.1 608.523 158.304C608.484 154.547 605.432 151.456 601.675 151.456Z" fill="#0E2549"/>
<path d="M653.055 328.84C650.512 328.84 648.477 326.806 648.477 324.262C648.477 321.718 650.512 319.684 653.055 319.684C655.599 319.684 657.634 321.718 657.634 324.262C657.634 326.806 655.56 328.84 653.055 328.84ZM653.055 320.858C651.177 320.858 649.651 322.384 649.651 324.262C649.651 326.14 651.177 327.666 653.055 327.666C654.934 327.666 656.46 326.14 656.46 324.262C656.46 322.384 654.934 320.858 653.055 320.858Z" fill="#0E2549"/>
<path d="M216.423 12.6553C213.175 12.6553 210.514 9.9944 210.514 6.74646C210.514 3.49852 213.175 0.837555 216.423 0.837555C219.671 0.837555 222.332 3.49852 222.332 6.74646C222.332 10.0335 219.671 12.6553 216.423 12.6553ZM216.423 2.05064C213.801 2.05064 211.688 4.16375 211.688 6.78558C211.688 9.40741 213.801 11.5205 216.423 11.5205C219.045 11.5205 221.158 9.40741 221.158 6.78558C221.158 4.16375 219.045 2.05064 216.423 2.05064Z" fill="#0E2549"/>
<path d="M54.1432 375.524C51.2866 375.524 48.9387 373.177 48.9387 370.32C48.9387 367.463 51.2866 365.115 54.1432 365.115C56.9999 365.115 59.3478 367.463 59.3478 370.32C59.3478 373.177 56.9999 375.524 54.1432 375.524ZM54.1432 366.25C51.9127 366.25 50.1127 368.05 50.1127 370.281C50.1127 372.511 51.9127 374.311 54.1432 374.311C56.3738 374.311 58.1738 372.511 58.1738 370.281C58.1738 368.05 56.3738 366.25 54.1432 366.25Z" fill="#0E2549"/>
<path d="M436.696 477.502H262.09C253.872 477.502 247.259 470.85 247.259 462.671V143.277C247.259 135.06 253.911 128.446 262.09 128.446H436.696C444.913 128.446 451.527 135.099 451.527 143.277V462.671C451.566 470.85 444.913 477.502 436.696 477.502Z" fill="#00387F"/>
<path d="M358.158 150.869C357.376 150.869 356.749 151.534 356.749 152.317C356.749 157.717 353.032 162.061 348.454 162.061C343.875 162.061 340.158 157.678 340.158 152.317C340.158 151.534 339.531 150.869 338.749 150.869H261.933V438.057H436.891V150.869H358.158Z" fill="white"/>
<path d="M437.478 438.683H261.346V150.282H338.749C339.297 150.282 339.766 150.478 340.158 150.869C340.549 151.26 340.745 151.769 340.745 152.317C340.745 157.365 344.188 161.513 348.454 161.513C352.719 161.513 356.163 157.404 356.163 152.356C356.163 151.808 356.358 151.299 356.75 150.908C357.141 150.517 357.61 150.321 358.158 150.321H437.478V438.683ZM262.52 437.509H436.304V151.456H358.158C357.963 151.456 357.728 151.534 357.571 151.691C357.415 151.847 357.336 152.082 357.336 152.317C357.336 158.03 353.345 162.687 348.454 162.687C343.562 162.687 339.571 158.03 339.571 152.356C339.571 152.121 339.492 151.886 339.336 151.73C339.179 151.573 338.984 151.495 338.749 151.495H262.52V437.509Z" fill="#0E2549"/>
<path d="M401.086 235.002H284.199V287.674H391.694V241.263L401.086 235.002Z" fill="#4CA6FF"/>
<path d="M356.162 457.819C356.162 463.962 351.193 468.893 345.088 468.893C338.944 468.893 334.014 463.923 334.014 457.819C334.014 451.714 338.984 446.744 345.088 446.744C351.193 446.705 356.162 451.675 356.162 457.819Z" fill="white"/>
<path d="M345.088 469.48C338.631 469.48 333.427 464.236 333.427 457.819C333.427 451.401 338.671 446.157 345.088 446.157C351.545 446.157 356.749 451.401 356.749 457.819C356.749 464.236 351.506 469.48 345.088 469.48ZM345.088 447.292C339.297 447.292 334.601 451.988 334.601 457.78C334.601 463.571 339.297 468.267 345.088 468.267C350.88 468.267 355.576 463.571 355.576 457.78C355.576 451.988 350.88 447.292 345.088 447.292Z" fill="#0E2549"/>
<path d="M400.186 369.224H283.299V421.935H390.794V375.485L400.186 369.224Z" fill="#4CA6FF"/>
<path d="M296.878 314.596H420.26V338.545H306.543V320.505L296.878 314.596Z" fill="#DAEAFF"/>
<path d="M420.847 339.132H305.956V320.818L294.804 314.009H420.886V339.132H420.847ZM307.13 337.958H419.712V315.183H298.952L307.091 320.153V337.958H307.13Z" fill="#0E2549"/>
<path d="M295.821 180.844H419.204V211.758H305.487V186.753L295.821 180.844Z" fill="#DAEAFF"/>
<path d="M419.791 212.345H304.9V187.066L293.747 180.257H419.83V212.345H419.791ZM306.074 211.171H418.656V181.431H297.895L306.035 186.401V211.171H306.074Z" fill="#0E2549"/>
<path d="M291.399 183.7C291.399 177.205 286.117 171.922 279.621 171.922C273.125 171.922 267.842 177.205 267.842 183.7C267.842 186.792 269.016 189.688 271.168 191.918C273.399 194.227 276.412 195.479 279.621 195.479C282.321 195.479 284.864 194.579 286.977 192.896C287.134 192.779 287.29 192.662 287.447 192.505C289.991 190.275 291.399 187.105 291.399 183.7ZM269.016 183.7C269.016 177.87 273.751 173.096 279.621 173.096C285.451 173.096 290.225 177.831 290.225 183.7C290.225 186.44 289.208 188.983 287.369 190.94C286.586 188.631 284.59 186.792 282.164 186.127C283.103 185.383 283.729 184.209 283.729 182.918C283.729 180.687 281.89 178.848 279.66 178.848C277.429 178.848 275.59 180.687 275.59 182.918C275.59 184.209 276.177 185.344 277.116 186.087C274.729 186.714 272.733 188.475 271.833 190.783C269.994 188.866 269.016 186.361 269.016 183.7ZM279.621 185.853C278.016 185.853 276.725 184.561 276.725 182.957C276.725 181.353 278.016 180.061 279.621 180.061C281.225 180.061 282.516 181.353 282.516 182.957C282.516 184.522 281.225 185.853 279.621 185.853ZM279.621 194.305C277.038 194.305 274.612 193.405 272.694 191.722C273.516 188.944 276.138 187.027 279.034 187.027H279.621H280.012C283.064 187.027 285.764 189.101 286.39 191.84C286.351 191.879 286.312 191.918 286.234 191.957C284.356 193.523 282.086 194.305 279.621 194.305Z" fill="#0E2549"/>
<path d="M291.399 319.879C291.399 313.383 286.117 308.1 279.621 308.1C273.125 308.1 267.842 313.383 267.842 319.879C267.842 322.971 269.016 325.866 271.168 328.097C273.399 330.406 276.412 331.658 279.621 331.658C282.321 331.658 284.864 330.758 286.977 329.075C287.134 328.958 287.29 328.84 287.447 328.684C289.991 326.453 291.399 323.284 291.399 319.879ZM269.016 319.879C269.016 314.048 273.751 309.274 279.621 309.274C285.451 309.274 290.225 314.009 290.225 319.879C290.225 322.618 289.208 325.162 287.369 327.119C286.586 324.81 284.59 322.971 282.164 322.305C283.103 321.562 283.729 320.388 283.729 319.096C283.729 316.866 281.89 315.027 279.66 315.027C277.429 315.027 275.59 316.866 275.59 319.096C275.59 320.388 276.177 321.523 277.116 322.266C274.729 322.892 272.733 324.653 271.833 326.962C269.994 325.045 269.016 322.54 269.016 319.879ZM279.621 322.031C278.016 322.031 276.725 320.74 276.725 319.136C276.725 317.531 278.016 316.24 279.621 316.24C281.225 316.24 282.516 317.531 282.516 319.136C282.516 320.74 281.225 322.031 279.621 322.031ZM279.621 330.484C277.038 330.484 274.612 329.584 272.694 327.901C273.516 325.123 276.138 323.205 279.034 323.205H279.621H280.012C283.064 323.205 285.764 325.279 286.39 328.019C286.351 328.058 286.312 328.097 286.234 328.136C284.356 329.701 282.086 330.484 279.621 330.484Z" fill="#0E2549"/>
<path d="M430.943 237.233C430.943 230.737 425.66 225.454 419.165 225.454C412.669 225.454 407.386 230.737 407.386 237.233C407.386 240.324 408.56 243.22 410.712 245.45C412.943 247.759 415.956 249.011 419.165 249.011C421.865 249.011 424.408 248.111 426.521 246.429C426.678 246.311 426.834 246.194 426.991 246.037C429.534 243.807 430.943 240.637 430.943 237.233ZM408.599 237.233C408.599 231.402 413.334 226.628 419.204 226.628C425.073 226.628 429.808 231.363 429.808 237.233C429.808 239.972 428.791 242.515 426.952 244.472C426.169 242.163 424.173 240.324 421.747 239.659C422.686 238.915 423.312 237.741 423.312 236.45C423.312 234.22 421.473 232.38 419.243 232.38C417.012 232.38 415.173 234.22 415.173 236.45C415.173 237.741 415.76 238.876 416.699 239.62C414.312 240.246 412.316 242.007 411.416 244.316C409.538 242.398 408.599 239.894 408.599 237.233ZM419.165 239.385C417.56 239.385 416.269 238.094 416.269 236.489C416.269 234.885 417.56 233.593 419.165 233.593C420.769 233.593 422.06 234.885 422.06 236.489C422.099 238.094 420.808 239.385 419.165 239.385ZM419.165 247.837C416.582 247.837 414.156 246.937 412.238 245.255C413.06 242.476 415.682 240.559 418.578 240.559H419.165H419.556C422.608 240.559 425.308 242.633 425.934 245.372C425.895 245.411 425.856 245.45 425.778 245.489C423.899 247.055 421.63 247.837 419.165 247.837Z" fill="#0E2549"/>
<path d="M430.904 372.042C430.904 365.546 425.621 360.263 419.125 360.263C412.63 360.263 407.347 365.546 407.347 372.042C407.347 375.133 408.521 378.029 410.673 380.26C412.904 382.568 415.917 383.821 419.125 383.821C421.826 383.821 424.369 382.921 426.482 381.238C426.639 381.121 426.795 381.003 426.952 380.847C429.495 378.577 430.904 375.407 430.904 372.042ZM408.56 372.042C408.56 366.211 413.295 361.437 419.165 361.437C425.034 361.437 429.769 366.172 429.769 372.042C429.769 374.781 428.752 377.325 426.913 379.281C426.13 376.973 424.134 375.173 421.708 374.468C422.647 373.725 423.273 372.551 423.273 371.259C423.273 369.029 421.434 367.19 419.204 367.19C416.973 367.19 415.134 369.029 415.134 371.259C415.134 372.551 415.721 373.686 416.66 374.429C414.273 375.055 412.277 376.816 411.377 379.125C409.499 377.168 408.56 374.664 408.56 372.042ZM419.165 374.155C417.521 374.155 416.23 372.864 416.23 371.259C416.23 369.655 417.521 368.364 419.125 368.364C420.73 368.364 422.021 369.655 422.021 371.259C422.06 372.864 420.73 374.155 419.165 374.155ZM419.125 382.608C416.543 382.608 414.117 381.708 412.199 380.025C413.021 377.247 415.643 375.329 418.538 375.329H419.125H419.517C422.569 375.329 425.269 377.403 425.895 380.142C425.856 380.181 425.817 380.221 425.739 380.26C423.86 381.825 421.591 382.608 419.125 382.608Z" fill="#0E2549"/>
<path d="M409.851 191.761H317.5C317.187 191.761 316.913 191.488 316.913 191.175C316.913 190.861 317.187 190.588 317.5 190.588H409.851C410.164 190.588 410.438 190.861 410.438 191.175C410.438 191.488 410.164 191.761 409.851 191.761Z" fill="#0E2549"/>
<path d="M409.069 326.375H316.718C316.405 326.375 316.131 326.101 316.131 325.788C316.131 325.475 316.405 325.201 316.718 325.201H409.069C409.382 325.201 409.656 325.475 409.656 325.788C409.656 326.101 409.382 326.375 409.069 326.375Z" fill="#0E2549"/>
<path d="M367.785 201.427H317.5C317.187 201.427 316.913 201.153 316.913 200.84C316.913 200.527 317.187 200.253 317.5 200.253H367.785C368.098 200.253 368.372 200.527 368.372 200.84C368.372 201.192 368.098 201.427 367.785 201.427Z" fill="#0E2549"/>
<path d="M385.159 247.211H292.808C292.495 247.211 292.221 246.937 292.221 246.624C292.221 246.311 292.495 246.037 292.808 246.037H385.159C385.472 246.037 385.746 246.311 385.746 246.624C385.746 246.937 385.472 247.211 385.159 247.211Z" fill="#0E2549"/>
<path d="M385.159 256.916H292.808C292.495 256.916 292.221 256.642 292.221 256.329C292.221 256.016 292.495 255.742 292.808 255.742H385.159C385.472 255.742 385.746 256.016 385.746 256.329C385.746 256.642 385.472 256.916 385.159 256.916Z" fill="#0E2549"/>
<path d="M385.159 266.621H292.808C292.495 266.621 292.221 266.347 292.221 266.034C292.221 265.721 292.495 265.447 292.808 265.447H385.159C385.472 265.447 385.746 265.721 385.746 266.034C385.746 266.347 385.472 266.621 385.159 266.621Z" fill="#0E2549"/>
<path d="M319.418 276.325H292.808C292.495 276.325 292.221 276.051 292.221 275.738C292.221 275.425 292.495 275.151 292.808 275.151H319.418C319.731 275.151 320.005 275.425 320.005 275.738C320.005 276.051 319.731 276.325 319.418 276.325Z" fill="#0E2549"/>
<path d="M383.163 381.316H290.812C290.499 381.316 290.225 381.042 290.225 380.729C290.225 380.416 290.499 380.142 290.812 380.142H383.163C383.476 380.142 383.75 380.416 383.75 380.729C383.75 381.042 383.476 381.316 383.163 381.316Z" fill="#0E2549"/>
<path d="M383.163 391.021H290.812C290.499 391.021 290.225 390.747 290.225 390.434C290.225 390.121 290.499 389.847 290.812 389.847H383.163C383.476 389.847 383.75 390.121 383.75 390.434C383.75 390.747 383.476 391.021 383.163 391.021Z" fill="#0E2549"/>
<path d="M383.163 400.725H290.812C290.499 400.725 290.225 400.452 290.225 400.138C290.225 399.825 290.499 399.552 290.812 399.552H383.163C383.476 399.552 383.75 399.825 383.75 400.138C383.75 400.452 383.476 400.725 383.163 400.725Z" fill="#0E2549"/>
<path d="M349.979 410.43H290.812C290.499 410.43 290.225 410.156 290.225 409.843C290.225 409.53 290.499 409.256 290.812 409.256H349.979C350.292 409.256 350.566 409.53 350.566 409.843C350.566 410.156 350.292 410.43 349.979 410.43Z" fill="#0E2549"/>
<path d="M168.369 456.097L168.408 465.684H181.674L182.769 456.566L168.369 456.097Z" fill="white"/>
<path d="M182.182 466.271H167.821V455.51L183.474 456.058L182.182 466.271ZM168.995 465.097H181.165L182.143 457.153L168.995 456.723V465.097Z" fill="#0E2549"/>
<path d="M167.665 465.097C167.665 465.097 148.49 471.202 147.825 476.211H182.222V465.097H167.665Z" fill="#87174D"/>
<path d="M221.862 456.293L222.214 465.997H235.48L236.106 456.097L221.862 456.293Z" fill="white"/>
<path d="M236.028 466.584H221.627L221.236 455.745L236.732 455.51L236.028 466.584ZM222.801 465.41H234.971L235.519 456.684L222.488 456.88L222.801 465.41Z" fill="#0E2549"/>
<path d="M221.51 465.41C221.51 465.41 202.335 471.515 201.67 476.524H236.067V465.41H221.51Z" fill="#87174D"/>
<path d="M200.418 474.606V477.502H236.928V474.176L200.418 474.606Z" fill="#0E2549"/>
<path d="M183.278 474.098V477.15H146.768V473.863L183.278 474.098Z" fill="#0E2549"/>
<path d="M220.219 469.597C220.179 469.597 220.101 469.597 220.062 469.558L213.449 467.562C213.136 467.484 212.979 467.132 213.057 466.819C213.136 466.506 213.488 466.349 213.801 466.428L220.414 468.423C220.727 468.502 220.884 468.854 220.806 469.167C220.688 469.441 220.453 469.597 220.219 469.597Z" fill="#0E2549"/>
<path d="M216.892 471.593C216.853 471.593 216.775 471.593 216.736 471.554L210.123 469.558C209.81 469.48 209.653 469.128 209.731 468.815C209.81 468.502 210.162 468.345 210.475 468.423L217.088 470.419C217.401 470.497 217.558 470.85 217.479 471.163C217.362 471.437 217.127 471.593 216.892 471.593Z" fill="#0E2549"/>
<path d="M212.314 473.589C212.275 473.589 212.197 473.589 212.157 473.549L205.544 471.554C205.231 471.475 205.075 471.123 205.153 470.81C205.231 470.497 205.583 470.341 205.896 470.419L212.51 472.415C212.823 472.493 212.979 472.845 212.901 473.158C212.784 473.432 212.549 473.589 212.314 473.589Z" fill="#0E2549"/>
<path d="M167.312 468.619C167.273 468.619 167.195 468.619 167.156 468.58L160.542 466.584C160.229 466.506 160.073 466.154 160.151 465.841C160.229 465.528 160.582 465.371 160.895 465.45L167.508 467.445C167.821 467.523 167.978 467.876 167.899 468.189C167.821 468.463 167.586 468.619 167.312 468.619Z" fill="#0E2549"/>
<path d="M163.986 470.615C163.947 470.615 163.869 470.615 163.83 470.576L157.216 468.58C156.903 468.502 156.747 468.149 156.825 467.836C156.903 467.523 157.255 467.367 157.569 467.445L164.182 469.441C164.495 469.519 164.651 469.871 164.573 470.184C164.495 470.458 164.26 470.615 163.986 470.615Z" fill="#0E2549"/>
<path d="M159.408 472.571C159.369 472.571 159.29 472.571 159.251 472.532L152.638 470.537C152.325 470.458 152.168 470.106 152.247 469.793C152.325 469.48 152.677 469.324 152.99 469.402L159.603 471.397C159.916 471.476 160.073 471.828 159.995 472.141C159.877 472.415 159.682 472.571 159.408 472.571Z" fill="#0E2549"/>
<path d="M217.479 458.053H238.571L240.371 288.808L179.521 299.296L165.003 458.053H185.352L206.64 352.593L204.174 329.466L217.479 458.053Z" fill="#002C5F"/>
<path d="M170.521 200.801L162.812 214.419L173.887 218.136C173.887 218.136 176.978 207.414 179.248 206.436C181.517 205.458 183.591 202.092 183.004 200.449C182.417 198.805 180.578 197.005 180.578 197.005L170.521 200.801Z" fill="white"/>
<path d="M174.278 218.88L161.951 214.732L170.169 200.331L180.734 196.301L181.008 196.575C181.087 196.653 182.965 198.492 183.591 200.253C184.295 202.21 182.065 205.888 179.521 206.984C178.152 207.571 175.765 213.949 174.513 218.293L174.278 218.88ZM163.673 214.067L173.495 217.354C174.317 214.654 176.821 206.827 179.013 205.888C181.087 204.988 182.887 201.897 182.456 200.644C182.065 199.51 180.93 198.218 180.421 197.67L170.991 201.271L163.673 214.067Z" fill="#0E2549"/>
<path d="M169.347 209.175L171.578 210.819C172.673 211.641 174.239 211.406 175.06 210.31L188.483 192.231L182.222 187.614L168.799 205.693C168.017 206.827 168.212 208.393 169.347 209.175Z" fill="#002C5F"/>
<path d="M195.996 181.9L176.234 173.37L163.125 155.799L148.294 190.275L170.012 187.731L189.813 196.262L195.996 181.9Z" fill="#1A2E35"/>
<path d="M204.292 195.675C204.292 195.675 205.779 211.367 204.527 213.088C203.274 214.81 196.035 218.019 196.035 218.019L208.166 253.746L234.11 251.242L235.793 224.711C235.793 224.711 223.936 215.084 223.232 213.088C222.253 210.349 222.253 195.714 222.253 195.714H204.292V195.675Z" fill="white"/>
<path d="M207.735 254.373L195.292 217.706L195.8 217.471C197.757 216.61 203.118 214.067 204.057 212.736C204.761 211.758 204.448 203.305 203.705 195.714C203.666 195.401 203.901 195.088 204.253 195.088C204.566 195.049 204.879 195.283 204.879 195.636C205.114 198.297 206.327 211.641 204.996 213.441C203.822 215.045 198.5 217.549 196.739 218.332L208.557 253.081L233.523 250.655L235.167 224.906C232.741 222.911 223.388 215.162 222.684 213.206C221.666 210.388 221.666 196.223 221.666 195.636C221.666 195.323 221.94 195.049 222.253 195.049C222.566 195.049 222.84 195.323 222.84 195.636C222.84 199.666 222.997 210.662 223.779 212.815C224.249 214.145 231.606 220.484 236.145 224.202L236.38 224.398L234.658 251.751L207.735 254.373Z" fill="#0E2549"/>
<path d="M192.044 216.65C184.217 219.506 186.096 261.377 186.096 261.377C184.804 266.308 181.791 299.452 181.791 299.452L236.732 303.6L243.228 270.691C243.228 270.691 247.298 215.319 225.775 212.071C223.701 211.758 203.627 233.946 202.961 212.775C202.961 212.775 193.765 216.023 192.044 216.65Z" fill="#0E2549"/>
<path d="M231.841 316.905C231.723 316.905 231.606 316.866 231.488 316.788L218.692 307.944C218.418 307.748 218.34 307.396 218.536 307.122C218.732 306.848 219.084 306.809 219.358 306.966L232.154 315.809C232.428 316.005 232.506 316.357 232.31 316.631C232.193 316.788 231.997 316.905 231.841 316.905Z" fill="#A1C5E2"/>
<path d="M199.596 213.049C196.426 213.049 183.122 219.584 170.521 233.476C168.995 235.198 167.665 243.65 167.665 243.65C166.804 244.316 176.587 214.458 176.665 215.632C176.665 215.632 158.977 208.862 159.056 210.78C159.134 212.697 143.481 243.103 149.468 266.269C150.094 268.734 158.664 285.952 180.813 251.242L178.23 292.956L175.96 320.466L196.935 322.07L199.596 213.049Z" fill="#4CA6FF"/>
<path d="M224.445 211.014L216.266 252.259C216.227 256.799 210.749 303.757 211.805 323.049L240.058 325.279L240.411 311.896V297.809C240.411 297.809 272.89 283.213 271.207 276.325C264.555 249.168 257.629 236.685 252.228 225.219C251.328 223.341 231.762 211.014 224.445 211.014Z" fill="#4CA6FF"/>
<path d="M213.644 164.017C210.396 163.704 202.492 162.804 201.318 168.517C199.987 175.013 199.361 183.583 199.087 188.122C198.97 189.922 200.222 191.488 201.944 191.879L221.549 195.909C223.349 196.262 225.149 195.244 225.697 193.483C227.614 187.614 231.606 175.13 231.293 173.096C230.275 166.052 218.81 164.526 213.644 164.017Z" fill="#0E2549"/>
<path d="M219.201 199.823C220.492 198.923 221.823 194.696 222.958 189.727C222.997 189.57 223.075 189.453 223.232 189.414C224.68 188.905 226.871 187.653 227.341 185.187C227.732 183.035 226.088 183.192 224.758 183.622C224.523 183.7 224.288 183.466 224.327 183.231C225.462 177.244 226.206 171.922 226.206 171.922L202.922 167.109C202.922 167.109 201.866 172.47 200.848 178.496C200.809 178.77 198.813 193.249 199.127 194.657C199.283 195.44 199.753 196.144 200.418 196.77C200.418 196.77 201.67 198.297 210.123 200.058L219.201 199.823Z" fill="white"/>
<path d="M210.123 200.605C210.083 200.605 210.044 200.605 210.005 200.605C202.061 198.962 200.3 197.475 199.987 197.162C199.205 196.418 198.696 195.596 198.54 194.775C198.226 193.17 200.222 178.535 200.261 178.418C201.279 172.47 202.335 167.069 202.335 167.03L202.453 166.443L226.871 171.491L226.793 172.039C226.793 172.078 226.049 177.205 224.953 182.996C226.049 182.722 226.871 182.8 227.419 183.27C227.928 183.7 228.084 184.405 227.888 185.383C227.341 188.318 224.719 189.609 223.506 190.04C221.627 198.179 220.336 199.823 219.514 200.371C219.24 200.566 218.888 200.488 218.692 200.214C218.497 199.94 218.575 199.588 218.849 199.392C219.397 199.001 220.61 197.24 222.371 189.648C222.449 189.296 222.684 189.022 223.036 188.905C224.014 188.553 226.323 187.535 226.754 185.109C226.832 184.6 226.793 184.248 226.636 184.092C226.558 184.013 226.167 183.779 224.914 184.209C224.601 184.327 224.288 184.248 224.014 184.013C223.78 183.779 223.662 183.466 223.701 183.153C224.601 178.339 225.306 173.917 225.501 172.391L203.353 167.813C203.04 169.339 202.218 173.761 201.396 178.574C201.24 179.552 199.44 193.327 199.674 194.501C199.792 195.127 200.183 195.714 200.809 196.301L200.848 196.379C200.848 196.379 202.296 197.827 210.201 199.471C210.514 199.549 210.71 199.862 210.67 200.175C210.67 200.41 210.396 200.605 210.123 200.605Z" fill="#0E2549"/>
<path d="M213.762 183.426C213.723 183.426 213.684 183.426 213.684 183.426C213.37 183.387 213.136 183.074 213.175 182.761L213.253 182.292C213.292 181.979 213.605 181.744 213.918 181.783C214.231 181.822 214.466 182.135 214.427 182.448L214.349 182.918C214.31 183.231 214.075 183.426 213.762 183.426Z" fill="#0E2549"/>
<path d="M204.096 181.979C204.057 181.979 204.018 181.979 203.979 181.979C203.666 181.9 203.47 181.626 203.509 181.274L203.627 180.687C203.705 180.374 203.979 180.179 204.331 180.218C204.644 180.296 204.84 180.57 204.801 180.922L204.683 181.509C204.605 181.783 204.37 181.979 204.096 181.979Z" fill="#0E2549"/>
<path d="M218.418 180.961C218.262 180.961 218.144 180.922 218.027 180.805C215.17 178.066 213.096 178.613 213.018 178.613C212.705 178.692 212.392 178.535 212.275 178.222C212.196 177.909 212.353 177.596 212.666 177.479C212.783 177.439 215.444 176.657 218.849 179.944C219.084 180.179 219.084 180.531 218.849 180.766C218.731 180.922 218.575 180.961 218.418 180.961Z" fill="#0E2549"/>
<path d="M206.953 187.34C206.875 187.34 206.796 187.34 206.718 187.301C206.249 187.105 204.644 186.283 204.683 185.187C204.683 184.366 204.801 184.17 206.288 181.94C206.601 181.47 206.953 180.883 207.422 180.179C207.618 179.787 208.127 178.692 208.166 177.948C207.97 177.792 207.227 177.518 206.053 177.518H206.014C204.801 177.518 203.783 177.831 203.47 178.261C203.274 178.535 202.883 178.574 202.648 178.379C202.374 178.183 202.335 177.792 202.531 177.557C203.588 176.187 206.64 176.148 208.205 176.657C209.144 176.97 209.379 177.478 209.34 177.87C209.34 179.044 208.518 180.57 208.44 180.726L208.401 180.766C207.931 181.47 207.579 182.057 207.266 182.527C205.857 184.679 205.857 184.718 205.857 185.148C205.896 185.344 206.483 185.814 207.188 186.166C207.501 186.283 207.618 186.635 207.501 186.948C207.383 187.222 207.188 187.34 206.953 187.34Z" fill="#0E2549"/>
<path d="M227.262 293.896C227.262 293.896 223.779 298.396 222.997 299.413C222.175 300.391 216.462 303.405 216.462 303.405L229.962 308.14C229.962 308.14 230.001 304.344 230.393 302.192C230.588 301.057 234.071 298.318 234.071 298.318C234.071 298.318 227.575 294.248 227.262 293.896Z" fill="white"/>
<path d="M230.51 308.961L214.975 303.522L216.149 302.896C218.34 301.761 221.979 299.687 222.527 299.022C223.31 298.044 226.754 293.583 226.793 293.543L227.223 292.996L227.693 293.504C228.084 293.817 231.958 296.322 234.345 297.848L235.049 298.278L234.384 298.787C232.78 300.039 231.019 301.761 230.941 302.309C230.549 304.422 230.51 308.14 230.51 308.179V308.961ZM217.871 303.287L229.336 307.318C229.375 306.066 229.454 303.679 229.767 302.074C229.962 301.057 231.841 299.335 233.015 298.357C231.058 297.104 228.514 295.461 227.38 294.678C226.48 295.852 224.093 298.944 223.427 299.726C222.762 300.548 219.671 302.309 217.871 303.287Z" fill="#0E2549"/>
<path d="M232.897 309.705C232.819 309.705 232.78 309.705 232.702 309.666L214.897 303.718C214.584 303.6 214.427 303.287 214.505 302.974C214.623 302.661 214.975 302.505 215.288 302.622L233.093 308.57C233.406 308.687 233.562 309 233.484 309.314C233.406 309.548 233.171 309.705 232.897 309.705Z" fill="#0E2549"/>
<path d="M178.621 308.022C178.387 308.022 178.152 307.866 178.074 307.631C177.956 307.318 178.113 307.005 178.426 306.887L192.67 301.487C192.983 301.37 193.296 301.526 193.413 301.839C193.531 302.152 193.374 302.465 193.061 302.583L178.856 307.983C178.778 308.022 178.7 308.022 178.621 308.022Z" fill="#0E2549"/>
<path d="M235.676 300.118L222.723 291.665L244.793 272.256L234.462 252.533C234.306 252.259 234.423 251.907 234.697 251.751C234.971 251.594 235.323 251.712 235.48 251.985L246.241 272.53L224.64 291.548L235.793 298.826L239.237 297.691C239.55 297.574 239.863 297.77 239.98 298.044C240.097 298.357 239.902 298.67 239.628 298.787L235.676 300.118Z" fill="#0E2549"/>
<path d="M220.962 273.899C220.962 274.643 221.549 275.23 222.292 275.23C223.036 275.23 223.623 274.643 223.623 273.899C223.623 273.156 223.036 272.569 222.292 272.569C221.549 272.53 220.962 273.156 220.962 273.899Z" fill="white"/>
<path d="M222.293 275.817C221.236 275.817 220.375 274.956 220.375 273.899C220.375 272.843 221.236 271.982 222.293 271.982C223.349 271.982 224.21 272.843 224.21 273.899C224.21 274.956 223.349 275.817 222.293 275.817ZM222.293 273.117C221.862 273.117 221.549 273.469 221.549 273.86C221.549 274.291 221.901 274.604 222.293 274.604C222.723 274.604 223.036 274.251 223.036 273.86C223.075 273.469 222.723 273.117 222.293 273.117Z" fill="#0E2549"/>
<path d="M219.593 284.621C219.593 285.365 220.18 285.952 220.923 285.952C221.667 285.952 222.254 285.365 222.254 284.621C222.254 283.878 221.667 283.291 220.923 283.291C220.219 283.291 219.593 283.878 219.593 284.621Z" fill="white"/>
<path d="M220.962 286.539C219.905 286.539 219.045 285.678 219.045 284.621C219.045 283.565 219.905 282.704 220.962 282.704C222.019 282.704 222.879 283.565 222.879 284.621C222.879 285.678 222.019 286.539 220.962 286.539ZM220.962 283.878C220.532 283.878 220.219 284.23 220.219 284.621C220.219 285.013 220.571 285.365 220.962 285.365C221.392 285.365 221.706 285.013 221.706 284.621C221.706 284.23 221.353 283.878 220.962 283.878Z" fill="#0E2549"/>
<path d="M207.383 170.709C204.409 169.926 199.009 167.578 200.809 161.787C202.648 155.995 203.353 158.382 203.353 158.382C203.353 158.382 204.292 159.947 204.761 160.104C205.231 160.261 204.174 160.378 206.796 155.799C206.796 155.799 211.414 155.917 212.744 159.087C214.075 162.295 215.757 161.004 216.775 159.791C217.636 158.734 219.201 160.691 219.279 161.982C219.671 163.508 226.636 164.213 228.436 165.661C231.293 167.93 232.232 168.87 231.254 173.057C231.058 173.878 228.123 181.509 228.123 181.509L227.301 172.665C227.38 172.665 212.236 172 207.383 170.709Z" fill="#002C5F"/>
<path d="M193.531 273.117H190.126C189.813 273.117 189.539 272.843 189.539 272.53C189.539 272.217 189.813 271.943 190.126 271.943H193.531C193.844 271.943 194.118 272.217 194.118 272.53C194.118 272.843 193.844 273.117 193.531 273.117Z" fill="#0E2549"/>
<path d="M194.548 285.208H191.144C190.831 285.208 190.557 284.934 190.557 284.621C190.557 284.308 190.831 284.034 191.144 284.034H194.548C194.861 284.034 195.135 284.308 195.135 284.621C195.135 284.934 194.9 285.208 194.548 285.208Z" fill="#0E2549"/>
<path d="M206.053 352.672L202.101 328.292V314.949H203.274V328.214L207.227 352.476L206.053 352.672Z" fill="#A1C5E2"/>
<path d="M177.252 205.575C183.904 205.732 183.2 199.627 183.2 199.627C183.2 199.627 176.86 203.071 175.647 203.932C174.434 204.832 176.313 205.575 177.252 205.575Z" fill="white"/>
<path d="M177.487 206.201C177.408 206.201 177.33 206.201 177.252 206.201C176.508 206.201 175.021 205.771 174.708 204.871C174.63 204.597 174.591 204.049 175.295 203.501C176.508 202.601 182.652 199.275 182.926 199.157L183.669 198.766L183.787 199.627C183.787 199.744 184.1 202.445 182.339 204.401C181.243 205.575 179.6 206.201 177.487 206.201ZM177.252 204.988C179.13 205.027 180.539 204.558 181.439 203.54C182.261 202.601 182.535 201.427 182.574 200.605C180.813 201.584 176.86 203.736 175.96 204.401C175.921 204.44 175.882 204.479 175.843 204.519C176.039 204.714 176.704 204.988 177.252 204.988Z" fill="#0E2549"/>
<path d="M175.843 194.853C175.843 194.853 179.287 199.627 179.248 202.21C179.208 204.792 174.082 205.927 170.365 202.718C166.647 199.51 174.2 193.483 175.843 194.853Z" fill="white"/>
<path d="M175.413 205.262C173.691 205.262 171.734 204.675 169.973 203.188C168.212 201.662 168.369 199.392 170.365 197.044C171.891 195.244 174.865 193.249 176.234 194.423L176.352 194.54C176.508 194.736 179.913 199.51 179.835 202.249C179.795 203.345 179.091 204.284 177.878 204.832C177.213 205.066 176.352 205.262 175.413 205.262ZM175.178 195.205C174.434 195.205 172.634 196.105 171.226 197.788C170.326 198.844 169.034 200.84 170.717 202.288C172.947 204.206 175.726 204.44 177.369 203.697C177.839 203.501 178.582 203.032 178.621 202.171C178.661 200.253 176.352 196.575 175.413 195.244C175.374 195.244 175.295 195.205 175.178 195.205Z" fill="#0E2549"/>
<path d="M164.025 260.242C163.947 260.242 163.908 260.242 163.83 260.203C163.517 260.086 163.36 259.773 163.477 259.46C167.312 248.659 169.934 233.554 169.973 233.398C170.012 233.085 170.326 232.85 170.639 232.928C170.952 232.967 171.186 233.28 171.108 233.593C171.069 233.75 168.447 248.972 164.573 259.851C164.495 260.086 164.26 260.242 164.025 260.242Z" fill="#0E2549"/>
<path d="M206.679 191.722C206.522 192.701 205.935 193.444 205.388 193.366C204.84 193.288 204.566 192.388 204.722 191.409C204.879 190.431 205.466 189.688 206.014 189.766C206.562 189.844 206.836 190.744 206.679 191.722Z" fill="#0E2549"/>
<path d="M154.869 187.34C154.79 187.34 154.712 187.34 154.634 187.301C154.321 187.183 154.203 186.831 154.321 186.518L164.534 161.434C164.651 161.121 165.004 161.004 165.317 161.121C165.63 161.239 165.747 161.591 165.63 161.904L155.416 186.987C155.338 187.222 155.103 187.34 154.869 187.34Z" fill="#0E2549"/>
<path d="M248.511 74.9533L246.202 52.9612L257.824 54.1743L261.503 75.1098L248.511 74.9533Z" fill="white"/>
<path d="M262.207 75.6967L247.963 75.501L245.537 52.2958L258.333 53.5872L262.207 75.6967ZM249.02 74.3662L260.798 74.5227L257.315 54.722L246.828 53.6655L249.02 74.3662Z" fill="#0E2549"/>
<path d="M280.873 78.9446L291.751 61.4527L300.869 68.1051L291.517 86.8101L280.873 78.9446Z" fill="white"/>
<path d="M291.751 87.671L280.09 79.062L291.595 60.5918L301.613 67.9094L291.751 87.671ZM281.655 78.7881L291.321 85.9101L300.126 68.3008L291.908 62.3136L281.655 78.7881Z" fill="#0E2549"/>
<path d="M246.241 57.07C246.241 57.07 229.962 59.7701 229.61 52.6872C229.258 45.6043 229.688 46.0739 229.688 46.0739L257.981 46.4653L258.411 54.996C258.45 54.996 247.846 52.4524 246.241 57.07Z" fill="#3D002D"/>
<path d="M288.895 65.092C288.895 65.092 272.89 58.557 276.294 51.9828C279.699 45.4087 279.855 46.0739 279.855 46.0739L305.135 61.2571L301.065 68.9269C301.026 68.9269 292.73 61.8049 288.895 65.092Z" fill="#3D002D"/>
<path d="M279.207 45.9192L278.339 47.3609L304.592 63.159L305.459 61.7173L279.207 45.9192Z" fill="#0E2549"/>
<path d="M229.171 46.1999L229.148 47.8433L258.573 48.2398L258.595 46.5964L229.171 46.1999Z" fill="#0E2549"/>
<path d="M283.299 70.8444C283.299 70.8444 261.111 105.163 261.385 109.859C261.659 114.555 282.516 121.598 282.516 121.598L356.084 108.411C356.084 108.411 358.432 95.5365 341.879 95.1452C330.061 94.8713 282.79 107.08 282.79 107.08L298.169 80.1969L283.299 70.8444Z" fill="#002C5F"/>
<path d="M360.78 99.0191C360.78 99.0191 350.097 93.5406 334.679 95.6146C319.3 97.6886 277.547 113.341 273.633 110.993C269.72 108.645 264.75 68.4963 264.75 68.4963L244.676 70.8442C244.676 70.8442 251.054 125.394 260.955 128.407L363.636 128.485L360.78 99.0191Z" fill="#005ED4"/>
<path d="M420.143 60.0831C420.143 60.0831 432.313 54.0177 425.895 39.9693C418.069 22.8296 377.802 30.1081 395.255 61.1396C404.49 77.575 420.143 60.0831 420.143 60.0831Z" fill="#002C5F"/>
<path d="M396.899 54.0568C396.899 54.0568 393.846 71.1965 392.985 71.94C390.09 74.5227 388.564 75.3836 386.998 75.4619C386.372 75.501 384.494 85.5579 387.39 90.4494C392.046 98.3149 402.651 102.502 402.651 102.502L417.873 89.0406L413.608 82.8187C413.608 82.8187 410.008 79.8838 408.638 77.6533C407.269 75.4228 410.203 57.9309 410.203 57.9309L396.899 54.0568Z" fill="white"/>
<path d="M402.768 103.206L402.416 103.089C401.986 102.932 391.538 98.7453 386.842 90.7625C384.063 86.0666 385.511 76.8315 386.294 75.3836C386.45 75.0706 386.685 74.9141 386.92 74.9141C388.368 74.8358 389.816 73.9749 392.516 71.5879C393.064 70.6487 394.864 61.8832 396.273 53.9786L396.39 53.3524L410.83 57.5396L410.751 58.0483C409.617 64.7398 408.169 75.8532 409.108 77.3402C410.399 79.4533 413.921 82.31 413.96 82.3491L414.038 82.3882L418.617 89.1189L402.768 103.206ZM387.272 76.0489C386.607 77.5359 385.355 85.9492 387.859 90.1755C391.89 97.0235 400.694 101.054 402.534 101.837L417.091 88.9624L413.178 83.2491C412.669 82.8187 409.46 80.1577 408.13 78.0055C406.76 75.8141 408.912 62.2745 409.538 58.4005L397.368 54.8395C396.194 61.3745 394.238 71.7053 393.416 72.4488C390.52 74.9141 388.955 75.8924 387.272 76.0489Z" fill="#0E2549"/>
<path d="M396.977 57.7743C395.842 55.583 394.042 51.435 395.294 49.048C396.507 46.6609 399.012 48.4219 399.638 49.2436C400.029 49.7915 406.603 36.2127 406.603 36.2127L425.426 44.9391C425.426 44.9391 421.747 58.4787 417.482 64.5833C413.217 70.6879 409.303 70.727 404.451 68.3008C402.064 67.0877 400.499 65.5616 399.442 64.0354L396.977 57.7743Z" fill="white"/>
<path d="M409.656 70.3747C407.777 70.3747 405.938 69.6703 404.177 68.8094C401.986 67.7138 400.225 66.1876 398.973 64.3093C398.777 64.0354 398.855 63.6832 399.129 63.4875C399.403 63.2919 399.755 63.3701 399.951 63.644C401.086 65.3267 402.69 66.7355 404.725 67.7138C409.225 69.9443 412.825 70.1399 417.012 64.1919C420.73 58.87 424.017 47.6783 424.721 45.213L406.877 36.917C400.694 49.674 400.108 49.7523 399.716 49.7914C399.481 49.8305 399.286 49.7131 399.168 49.5566C398.855 49.1262 397.799 48.3435 396.938 48.3827C396.468 48.4218 396.116 48.6957 395.842 49.2436C395.06 50.8088 395.647 53.7829 397.525 57.4221C397.681 57.696 397.564 58.0482 397.29 58.2047C397.016 58.3613 396.664 58.2439 396.507 57.9699C395.02 55.1133 393.533 51.2001 394.825 48.7348C395.412 47.5609 396.273 47.287 396.899 47.2087C397.955 47.1304 399.051 47.7174 399.716 48.3435C400.734 46.7783 403.629 41.065 406.134 35.8996L406.369 35.3909L426.169 44.5869L426.052 45.0565C425.895 45.6043 422.295 58.7526 418.03 64.8571C415.056 69.0051 412.317 70.3747 409.656 70.3747Z" fill="#0E2549"/>
<path d="M411.456 51.1219C411.338 51.1219 411.221 51.0828 411.104 51.0045C411.064 51.0045 409.069 49.4784 407.19 49.5566C406.877 49.5566 406.603 49.3219 406.564 49.0088C406.564 48.6957 406.799 48.4218 407.112 48.3827C409.421 48.2653 411.691 49.9871 411.808 50.0654C412.082 50.261 412.121 50.6132 411.925 50.8871C411.808 51.0437 411.612 51.1219 411.456 51.1219Z" fill="#0E2549"/>
<path d="M419.83 55.7003C419.673 55.7003 419.478 55.6221 419.36 55.4655C419.36 55.4655 418.226 54.0176 416.582 53.822C416.269 53.7829 416.034 53.4698 416.073 53.1567C416.112 52.8437 416.425 52.6089 416.739 52.648C418.852 52.922 420.221 54.6829 420.26 54.7612C420.456 55.0351 420.417 55.3873 420.143 55.5829C420.065 55.6612 419.947 55.7003 419.83 55.7003Z" fill="#0E2549"/>
<path d="M422.569 56.5221C422.569 56.5221 421.356 49.8697 421.121 45.6435C421.082 45.213 400.029 48.3436 400.029 48.3436L404.647 33.3952L426.678 42.5912L422.569 56.5221Z" fill="#002C5F"/>
<path d="M384.533 46.5825C379.407 49.4 379.837 65.8354 393.181 58.7917C397.094 56.7177 394.59 41.0258 384.533 46.5825Z" fill="#002C5F"/>
<path d="M413.608 63.2135C413.764 63.6831 411.495 64.2701 410.243 63.644C407.034 62.0787 407.151 59.3003 407.699 60.0047C407.895 60.2786 409.186 61.8048 410.83 62.47C412.943 63.3309 413.451 62.6657 413.608 63.2135Z" fill="#0E2549"/>
<path d="M417.091 58.2047C417.012 58.2047 416.973 58.2047 416.895 58.1656C416.582 58.0482 416.425 57.7352 416.504 57.4221L416.738 56.6786C416.856 56.3655 417.169 56.209 417.482 56.2873C417.795 56.4047 417.952 56.7177 417.873 57.0308L417.638 57.7743C417.56 58.0482 417.325 58.2047 417.091 58.2047Z" fill="#0E2549"/>
<path d="M408.286 53.9785C408.208 53.9785 408.168 53.9785 408.09 53.9394C407.777 53.822 407.621 53.509 407.699 53.1959L407.934 52.4524C408.051 52.1393 408.364 51.9828 408.677 52.0611C408.99 52.1785 409.147 52.4915 409.069 52.8046L408.834 53.5481C408.755 53.7829 408.521 53.9785 408.286 53.9785Z" fill="#0E2549"/>
<path d="M411.964 61.1005C411.299 61.1005 410.712 60.9832 410.556 60.9049C410.243 60.7875 410.125 60.4353 410.243 60.1223C410.36 59.8092 410.712 59.6918 410.986 59.8092C411.417 59.9657 412.551 60.0049 412.708 59.7701C412.708 56.8743 412.786 56.6787 412.864 56.5613C413.021 56.2873 413.373 56.1308 413.647 56.2873C413.921 56.4047 414.038 56.7178 413.96 56.9917C413.96 57.07 413.882 57.5787 413.882 59.7701C413.882 60.2005 413.686 60.5527 413.334 60.7875C412.982 60.9832 412.473 61.1005 411.964 61.1005Z" fill="#0E2549"/>
<path d="M378.781 73.7401C378.781 73.7401 361.171 80.5099 357.258 101.641L356.084 108.411L377.372 108.685L377.098 121.598H430.043L432.391 96.5539C432.391 96.5539 423 76.2054 417.521 75.8141C412.043 75.4227 405.39 81.2925 400.303 80.5099C395.216 79.7272 384.494 70.4139 378.781 73.7401Z" fill="#3D002D"/>
<path d="M362.071 100.858C362.071 100.858 360.115 127.351 363.637 128.525C367.158 129.699 402.729 127.116 402.729 127.116L402.925 120.972C402.925 120.972 378.115 122.537 377.098 121.637C376.041 120.737 377.802 104.302 377.802 104.302L362.071 100.858Z" fill="white"/>
<path d="M368.528 129.386C365.984 129.386 364.145 129.307 363.441 129.072C362.228 128.681 360.858 126.607 360.936 114.242C360.976 107.55 361.484 100.898 361.484 100.819L361.523 100.154L378.389 103.793L378.35 104.302C377.567 111.698 377.059 119.876 377.489 121.129C379.289 121.598 393.885 120.933 402.886 120.346L403.512 120.307L403.277 127.625L402.768 127.664C401.594 127.781 379.094 129.386 368.528 129.386ZM362.619 101.563C362.502 103.402 362.15 108.802 362.11 114.242C362.032 126.725 363.519 127.859 363.793 127.938C366.532 128.838 391.89 127.272 402.103 126.529L402.26 121.559C400.499 121.677 395.451 121.95 390.364 122.185C377.45 122.733 376.941 122.303 376.628 122.029C376.276 121.716 375.767 121.246 376.393 112.52C376.628 109.194 376.941 105.946 377.098 104.693L362.619 101.563Z" fill="#0E2549"/>
<path d="M391.068 128.407L404.881 90.058H451.722L437.165 128.407H391.068Z" fill="#DAEAFF"/>
<path d="M437.596 128.994H390.246L404.49 89.4712H452.583L437.596 128.994ZM391.89 127.82H436.774L450.861 90.6451H405.312L391.89 127.82Z" fill="#DAEAFF"/>
<path d="M422.647 113.772C424.592 113.772 426.169 112.195 426.169 110.25C426.169 108.305 424.592 106.728 422.647 106.728C420.702 106.728 419.125 108.305 419.125 110.25C419.125 112.195 420.702 113.772 422.647 113.772Z" fill="white"/>
<path d="M422.647 114.359C420.378 114.359 418.539 112.52 418.539 110.25C418.539 107.98 420.378 106.141 422.647 106.141C424.917 106.141 426.756 107.98 426.756 110.25C426.756 112.52 424.917 114.359 422.647 114.359ZM422.647 107.315C421.043 107.315 419.713 108.646 419.713 110.25C419.713 111.854 421.043 113.185 422.647 113.185C424.252 113.185 425.582 111.854 425.582 110.25C425.582 108.646 424.291 107.315 422.647 107.315Z" fill="#0E2549"/>
<path d="M359.254 98.5105L358.276 108.45H379.328L380.815 98.0801L359.254 98.5105Z" fill="#3D002D"/>
<path d="M590.249 455.393L591.384 467.523L579.918 467.445L575.731 455.393H590.249Z" fill="white"/>
<path d="M592.01 468.11L579.487 468.032L574.87 454.806H590.757L592.01 468.11ZM580.348 466.858L590.718 466.937L589.701 455.98H576.513L580.348 466.858Z" fill="#0E2549"/>
<path d="M592.01 467.015C592.01 467.015 608.523 472.376 609.071 476.68L579.409 476.524L579.448 466.936L592.01 467.015Z" fill="#00387F"/>
<path d="M578.509 474.724L578.47 477.346L610.01 477.541V474.685L578.509 474.724Z" fill="#0E2549"/>
<path d="M586.375 474.45C586.062 474.45 585.788 474.176 585.788 473.863L585.827 468.11C585.827 467.797 586.101 467.523 586.414 467.523C586.727 467.523 587.001 467.797 587.001 468.11L586.962 473.863C586.962 474.176 586.688 474.45 586.375 474.45Z" fill="#0E2549"/>
<path d="M491.597 437.04C491.597 437.04 557.417 409.334 564.774 415.635C569.587 419.743 590.718 448.27 594.279 457.78L574.165 461.458C574.165 461.458 557.73 438.018 554.326 436.257C551.978 435.044 522.512 441.266 522.512 441.266L491.597 437.04Z" fill="#3D002D"/>
<path d="M609.697 451.245L627.111 461.732L618.815 468.932L605.784 462.906L609.697 451.245Z" fill="white"/>
<path d="M618.932 469.597L605.08 463.18L609.384 450.344L628.128 461.614L618.932 469.597ZM606.488 462.593L618.698 468.228L626.094 461.81L610.01 452.145L606.488 462.593Z" fill="#0E2549"/>
<path d="M627.228 460.949C627.228 460.949 643.155 454.062 646.442 456.958L624.059 476.406L617.759 469.167L627.228 460.949Z" fill="#00387F"/>
<path d="M506.546 436.14C506.546 436.14 554.13 419.939 561.8 420.8C576.161 422.405 617.093 452.145 617.093 452.145L608.563 468.267L558.317 443.81C558.317 443.81 520.242 466.31 506.272 472.141C457.279 492.568 455.792 441.188 455.792 441.188L485.806 430.153L506.546 436.14Z" fill="#87174D"/>
<path d="M646.207 455.001L647.812 456.88L624.02 477.541L622.141 475.389L646.207 455.001Z" fill="#0E2549"/>
<path d="M625.859 474.293C625.702 474.293 625.546 474.215 625.428 474.097L621.672 469.754C621.476 469.519 621.476 469.128 621.711 468.932C621.946 468.736 622.337 468.736 622.533 468.971L626.289 473.315C626.485 473.55 626.485 473.941 626.25 474.136C626.133 474.254 626.015 474.293 625.859 474.293Z" fill="#0E2549"/>
<path d="M505.372 350.715C505.372 350.715 501.224 363.159 501.85 364.92C502.476 366.681 508.072 374.038 508.072 374.038L487.684 398.025L466.553 389.808L471.405 367.15C471.405 367.15 483.615 361.868 484.671 360.381C486.158 358.307 489.602 346.058 489.602 346.058L505.372 350.715Z" fill="white"/>
<path d="M487.88 398.73L465.888 390.16L470.936 366.72L471.21 366.602C477.04 364.059 483.615 360.889 484.241 360.028C485.415 358.424 488.115 349.267 489.093 345.863C489.171 345.55 489.524 345.354 489.837 345.471C490.15 345.55 490.345 345.902 490.228 346.215C490.071 346.724 486.706 358.62 485.219 360.733C484.162 362.22 474.575 366.446 471.992 367.581L467.297 389.455L487.567 397.36L507.368 374.038C506.155 372.394 501.928 366.759 501.341 365.155C500.676 363.315 504.159 352.672 504.863 350.558C504.981 350.245 505.294 350.089 505.607 350.206C505.92 350.324 506.076 350.637 505.959 350.95C503.963 356.976 502.085 363.785 502.437 364.763C502.946 366.133 507.015 371.69 508.581 373.724L508.855 374.116L487.88 398.73Z" fill="#0E2549"/>
<path d="M508.737 322.266C505.842 321.092 498.837 318.079 496.176 322.97C493.163 328.566 490.228 336.275 488.741 340.345C488.154 341.949 488.858 343.749 490.345 344.571L507.25 353.728C508.816 354.55 510.733 354.119 511.75 352.671C515.155 347.819 521.846 337.136 522.12 335.14C523.06 328.371 513.316 324.144 508.737 322.266Z" fill="#002C5F"/>
<path d="M495.667 354.941C499.698 357.837 505.607 359.872 507.994 359.011C509.402 358.502 511.829 354.863 514.333 350.519C514.411 350.402 522.472 334.632 522.472 334.632L503.063 324.145C503.063 324.145 500.559 328.879 497.859 334.28C497.741 334.514 497.428 334.554 497.311 334.319C496.645 333.106 495.511 331.814 494.415 333.771C493.045 336.197 494.18 338.819 494.924 339.915C495.002 340.032 495.002 340.189 494.963 340.306C493.163 344.18 491.754 347.584 491.597 348.993C491.519 349.737 491.715 350.519 492.145 351.302L495.667 354.941Z" fill="white"/>
<path d="M506.663 359.794C503.494 359.794 498.563 357.72 495.354 355.411C495.08 355.215 495.041 354.863 495.237 354.589C495.433 354.315 495.785 354.276 496.059 354.472C499.972 357.289 505.724 359.246 507.877 358.463C508.503 358.228 510.068 356.898 513.903 350.206C514.02 349.972 518.951 340.345 521.768 334.828L503.376 324.888C502.633 326.258 500.598 330.21 498.446 334.514C498.289 334.828 497.976 335.023 497.624 335.023C497.311 335.023 496.998 334.867 496.841 334.554C496.333 333.614 495.902 333.301 495.667 333.301C495.472 333.301 495.198 333.575 494.963 334.006C493.515 336.549 495.237 339.249 495.472 339.523C495.667 339.797 495.707 340.189 495.55 340.502C492.967 346.058 492.302 348.171 492.224 348.993C492.146 349.619 492.302 350.245 492.693 350.95C492.85 351.224 492.733 351.576 492.459 351.732C492.185 351.889 491.832 351.772 491.676 351.498C491.167 350.598 490.972 349.698 491.05 348.837C491.206 347.545 492.302 344.65 494.454 340.071C493.398 338.428 492.654 335.728 493.985 333.38C494.493 332.519 495.041 332.088 495.707 332.088C496.372 332.088 497.037 332.558 497.624 333.497C500.207 328.332 502.594 323.792 502.633 323.753L502.907 323.245L523.334 334.28L523.06 334.788C521.181 338.506 514.959 350.598 514.881 350.715C510.772 357.915 509.129 359.167 508.229 359.481C507.759 359.715 507.25 359.794 506.663 359.794Z" fill="#0E2549"/>
<path d="M513.433 345.158C513.355 345.158 513.237 345.119 513.159 345.08C512.885 344.923 512.768 344.571 512.924 344.297L513.198 343.789C513.355 343.515 513.707 343.397 513.981 343.554C514.255 343.71 514.372 344.063 514.216 344.337L513.942 344.845C513.864 345.041 513.629 345.158 513.433 345.158Z" fill="#0E2549"/>
<path d="M504.707 340.501C504.628 340.501 504.511 340.462 504.433 340.423C504.159 340.267 504.042 339.914 504.198 339.641L504.472 339.132C504.628 338.858 504.981 338.74 505.255 338.897C505.529 339.054 505.646 339.406 505.489 339.68L505.215 340.188C505.098 340.384 504.902 340.501 504.707 340.501Z" fill="#0E2549"/>
<path d="M508.111 337.566C507.955 337.566 507.837 337.527 507.72 337.41C507.681 337.371 506.311 336.079 504.315 336.158C504.002 336.158 503.728 335.923 503.689 335.61C503.65 335.297 503.924 335.023 504.237 334.984C506.702 334.906 508.424 336.471 508.503 336.549C508.737 336.784 508.737 337.136 508.503 337.371C508.424 337.488 508.268 337.566 508.111 337.566Z" fill="#0E2549"/>
<path d="M517.229 343.202C517.033 343.202 516.838 343.084 516.72 342.928C515.703 341.245 513.864 340.776 513.824 340.776C513.511 340.697 513.316 340.384 513.394 340.071C513.472 339.758 513.785 339.562 514.098 339.641C514.177 339.68 516.446 340.189 517.738 342.341C517.894 342.615 517.816 342.967 517.542 343.163C517.425 343.163 517.346 343.202 517.229 343.202Z" fill="#0E2549"/>
<path d="M508.229 347.858C507.603 347.858 507.016 347.702 506.742 347.624C506.429 347.545 506.233 347.193 506.35 346.88C506.429 346.567 506.781 346.371 507.094 346.489C507.837 346.684 508.581 346.724 508.737 346.606C509.011 346.254 509.05 346.254 509.363 343.71C509.442 343.163 509.52 342.458 509.637 341.636C509.677 341.323 509.99 341.089 510.303 341.128C510.616 341.167 510.851 341.48 510.811 341.793C510.694 342.615 510.616 343.319 510.537 343.867C510.224 346.489 510.185 346.724 509.677 347.35C509.324 347.741 508.776 347.858 508.229 347.858Z" fill="#0E2549"/>
<path d="M493.124 338.819C493.124 338.819 493.437 339.797 494.063 341.832C494.806 344.18 509.481 351.028 510.733 351.067C513.55 351.145 514.02 348.915 514.764 349.502C515.664 350.245 509.089 359.754 507.25 360.576C505.411 361.437 494.806 356.311 489.876 352.202C485.767 348.758 493.124 338.819 493.124 338.819Z" fill="#002C5F"/>
<path d="M509.677 351.732C509.755 352.358 507.485 353.493 505.724 352.671C502.829 351.38 502.868 348.758 503.533 349.189C503.768 349.345 504.55 350.441 506.311 351.185C508.19 352.045 509.598 351.341 509.677 351.732Z" fill="white"/>
<path d="M500.363 324.066C500.363 324.066 513.863 337.332 524.155 335.649C534.447 333.927 523.059 327.471 515.742 324.457C508.463 321.405 498.015 317.57 500.363 324.066Z" fill="#002C5F"/>
<path d="M505.568 321.914C505.568 321.914 497.233 314.323 493.202 328.723C490.893 336.941 492.498 325.592 503.689 324.692C504.824 324.575 505.568 321.914 505.568 321.914Z" fill="#002C5F"/>
<path d="M542.547 399.904C542.547 399.904 545.365 400.725 547.165 399.904C548.926 399.082 548.534 393.916 550.217 394.856C551 395.325 550.882 399.63 550.882 399.63L558.435 399.59C558.435 399.59 558.591 406.165 554.13 408.043C550.413 409.608 541.999 406.556 541.96 406.478C541.843 406.321 542.547 399.904 542.547 399.904Z" fill="white"/>
<path d="M551.313 409.1C547.125 409.1 541.804 407.104 541.764 407.065C541.686 407.026 541.451 406.947 541.373 406.713C541.295 406.556 541.256 406.4 541.96 399.865L542.038 399.16L542.704 399.356C542.743 399.356 545.365 400.099 546.891 399.395C547.478 399.121 547.791 397.83 548.065 396.773C548.378 395.599 548.652 394.543 549.356 394.23C549.591 394.112 549.982 394.073 550.452 394.347C551.273 394.817 551.43 397.047 551.43 399.043L558.982 399.004V399.591C558.982 399.865 559.061 406.595 554.326 408.591C553.465 408.943 552.447 409.1 551.313 409.1ZM542.508 406.086C544.112 406.673 550.843 408.747 553.856 407.495C557.143 406.087 557.691 401.743 557.769 400.178L550.217 400.217L550.256 399.591C550.334 397.673 550.139 395.717 549.865 395.325H549.826C549.63 395.521 549.356 396.46 549.239 397.047C548.886 398.378 548.495 399.904 547.439 400.412C546.03 401.078 544.112 400.804 543.095 400.608C542.86 402.604 542.586 405.147 542.508 406.086Z" fill="#0E2549"/>
<path d="M554.013 389.299L550.139 406.204L558.004 408.474L562.583 390.982L554.013 389.299Z" fill="#0E2549"/>
<path d="M554.913 391.256L551.352 405.656L556.635 406.517L560.274 392.351L554.913 391.256Z" fill="white"/>
<path d="M557.065 407.182L550.608 406.126L554.443 390.551L560.978 391.882L557.065 407.182ZM552.095 405.186L556.204 405.852L559.53 392.782L555.304 391.921L552.095 405.186Z" fill="#0E2549"/>
<path d="M540.747 412.621C540.747 412.621 551.508 411.448 553.856 412.034C556.204 412.621 561.409 410.547 562.309 405.46C563.209 400.373 560.626 399.982 560.626 399.982C560.626 399.982 559.726 402.878 559.452 403.386C559.022 404.208 556.008 405.695 556.008 405.695C556.008 405.695 556.204 400.921 554.835 400.217C553.465 399.551 552.291 406.047 552.291 406.047L540.747 403.934V412.621Z" fill="white"/>
<path d="M540.16 413.287V403.23L551.821 405.382C552.174 403.699 552.956 400.295 554.169 399.708C554.482 399.551 554.795 399.551 555.108 399.708C556.4 400.334 556.596 403.034 556.635 404.717C557.73 404.091 558.787 403.425 558.943 403.112C559.139 402.76 559.726 400.921 560.078 399.786L560.235 399.317L560.743 399.395C560.822 399.395 561.644 399.551 562.309 400.451C563.091 401.547 563.326 403.269 562.935 405.539C562.544 407.887 561.174 409.96 559.1 411.291C557.339 412.426 555.226 412.935 553.778 412.582C551.939 412.113 543.839 412.856 540.864 413.169L540.16 413.287ZM541.334 404.599V411.956C543.721 411.721 551.9 410.939 554.013 411.448C554.913 411.682 556.713 411.408 558.396 410.313C560.196 409.139 561.37 407.378 561.722 405.343C562.152 402.917 561.722 401.704 561.33 401.156C561.213 400.999 561.096 400.882 560.978 400.804C560.665 401.743 560.156 403.269 559.961 403.66C559.491 404.56 557.026 405.852 556.282 406.204L555.382 406.634L555.422 405.656C555.5 403.582 555.226 401.195 554.639 400.765C554.13 401.117 553.348 403.582 552.878 406.126L552.761 406.713L541.334 404.599Z" fill="#0E2549"/>
<path d="M484.28 359.011C487.215 359.598 493.045 372.042 498.876 373.02C500.637 373.294 503.494 370.555 504.863 369.107C510.929 362.65 507.368 394.856 511.398 397.986H544.191L544.895 409.53L508.815 406.908C502.554 411.174 510.263 430.27 506.311 435.67C505.802 436.375 455.714 444.475 455.479 443.653C440.844 394.817 470.818 356.35 484.28 359.011Z" fill="#0E2549"/>
<path d="M476.375 370.75C484.711 367.659 490.189 404.091 509.99 402.721C530.69 401.273 546.304 402.173 546.421 402.917C546.421 402.917 545.247 417.513 545.13 417.826C545.13 417.826 528.069 420.017 503.494 422.639C493.241 423.735 480.797 410.078 472.736 399.473C468.158 393.525 468.393 373.724 476.375 370.75Z" fill="#0E2549"/>
<path d="M504.159 423.03C504.12 423.03 504.12 423.03 504.081 423.03C499.815 422.443 497.272 422.052 492.106 421.27C481.854 419.743 473.206 403.856 467.727 390.747C467.61 390.434 467.727 390.121 468.04 389.964C468.353 389.847 468.666 389.964 468.823 390.277C474.184 403.073 482.597 418.648 492.302 420.056C497.428 420.8 500.011 421.191 504.276 421.817C504.589 421.857 504.824 422.17 504.785 422.483C504.707 422.796 504.472 423.03 504.159 423.03Z" fill="#007CFF"/>
<path d="M545.13 418.452C545.091 418.452 545.091 418.452 545.052 418.452C544.739 418.413 544.504 418.139 544.543 417.826L546.108 402.917C543.799 402.408 529.712 401.899 510.342 403.582C499.972 404.482 493.202 395.364 487.45 385.425C487.293 385.151 487.371 384.799 487.645 384.642C487.919 384.486 488.271 384.564 488.428 384.838C493.985 394.464 500.48 403.269 510.185 402.408C522.316 401.352 531.668 401.234 536.169 401.273C547.008 401.312 547.165 402.017 547.282 402.447V402.525L545.639 417.943C545.678 418.217 545.443 418.452 545.13 418.452Z" fill="#007CFF"/>
<path d="M506.35 402.643C506.076 402.643 505.841 402.447 505.763 402.173L502.711 385.229C502.672 384.916 502.867 384.603 503.18 384.564C503.493 384.525 503.806 384.72 503.846 385.034L506.898 401.978C506.937 402.291 506.741 402.604 506.428 402.643C506.428 402.604 506.389 402.643 506.35 402.643Z" fill="#007CFF"/>
<path d="M687.413 478.128H1.78485C1.4718 478.128 1.19788 477.854 1.19788 477.541C1.19788 477.228 1.4718 476.954 1.78485 476.954H687.413C687.726 476.954 688 477.228 688 477.541C688 477.854 687.726 478.128 687.413 478.128Z" fill="#0E2549"/>
<path d="M275.199 111.933C274.299 111.933 273.633 111.776 273.281 111.502C269.564 108.45 265.611 79.1402 265.181 75.814L266.355 75.6574C268.077 88.5709 271.52 108.489 274.064 110.602C274.377 110.876 276.02 111.228 284.316 109.037C289.99 107.511 297.386 105.202 304.548 102.971C317.931 98.7843 330.57 94.832 334.757 95.1059L334.679 96.2799C330.688 96.006 317.578 100.154 304.9 104.106C289.795 108.763 279.503 111.933 275.199 111.933Z" fill="white"/>
</svg>
